<svg xmlns="http://www.w3.org/2000/svg" width="9.974" height="9" viewBox="0 0 9.974 9"><defs><style>.a{fill:#e36da6;}</style></defs><g transform="translate(0 -25)"><path class="a" d="M97.916,249h-.623a.292.292,0,1,0,0,.584h.623a.292.292,0,1,0,0-.584Z" transform="translate(-95.11 -219.636)"/><path class="a" d="M97.916,313h-.623a.292.292,0,1,0,0,.584h.623a.292.292,0,1,0,0-.584Z" transform="translate(-95.11 -282.39)"/><path class="a" d="M97.916,377h-.623a.292.292,0,0,0,0,.584h.623a.292.292,0,0,0,0-.584Z" transform="translate(-95.11 -345.143)"/><path class="a" d="M225.916,249h-.623a.292.292,0,1,0,0,.584h.623a.292.292,0,1,0,0-.584Z" transform="translate(-220.617 -219.636)"/><path class="a" d="M225.916,313h-.623a.292.292,0,1,0,0,.584h.623a.292.292,0,1,0,0-.584Z" transform="translate(-220.617 -282.39)"/><path class="a" d="M225.916,377h-.623a.292.292,0,1,0,0,.584h.623a.292.292,0,0,0,0-.584Z" transform="translate(-220.617 -345.143)"/><path class="a" d="M353.916,249h-.623a.292.292,0,1,0,0,.584h.623a.292.292,0,1,0,0-.584Z" transform="translate(-346.123 -219.636)"/><path class="a" d="M353.916,313h-.623a.292.292,0,1,0,0,.584h.623a.292.292,0,1,0,0-.584Z" transform="translate(-346.123 -282.39)"/><path class="a" d="M353.916,377h-.623a.292.292,0,1,0,0,.584h.623a.292.292,0,0,0,0-.584Z" transform="translate(-346.123 -345.143)"/><path class="a" d="M9.1,25.779H8.4v-.487a.292.292,0,1,0-.584,0v.487H5.279v-.487a.292.292,0,1,0-.584,0v.487H2.162v-.487a.292.292,0,1,0-.584,0v.487h-.7A.878.878,0,0,0,0,26.656v6.468A.878.878,0,0,0,.877,34H9.1a.878.878,0,0,0,.877-.877V26.656A.878.878,0,0,0,9.1,25.779Zm-8.513.877a.293.293,0,0,1,.292-.292h.7v.487a.292.292,0,1,0,.584,0v-.487H4.695v.487a.292.292,0,1,0,.584,0v-.487H7.812v.487a.292.292,0,1,0,.584,0v-.487h.7a.293.293,0,0,1,.292.292v1.149H.584ZM9.1,33.416H.877a.293.293,0,0,1-.292-.292V28.39H9.39v4.734A.293.293,0,0,1,9.1,33.416Z" transform="translate(0 0)"/></g></svg>