<svg xmlns="http://www.w3.org/2000/svg" xmlns:xlink="http://www.w3.org/1999/xlink" width="339.946" height="225.986" viewBox="0 0 339.946 225.986"><defs><style>.a{fill:#f5b5cf;}.b{fill:#fea4a4;}.c{fill:#f8833d;}.d{fill:#f55839;}.e{fill:#ffa042;}.f{fill:#f55638;}.g{fill:none;}.h{fill:#133261;}.i{fill:#015b99;}.j{fill:#2a2347;}.k{clip-path:url(#a);}.l{fill:#b23812;}.m{fill:#b7d0ff;}.n{fill:#a0aefc;}.o{fill:#fff3f8;}.p{fill:#ffb476;}.q{fill:#5e302a;}.r{fill:#994239;opacity:0.5;mix-blend-mode:screen;isolation:isolate;}.s{fill:#ffe5cc;}.t{fill:#ed9558;}.u{fill:#ce8236;}.v{fill:#ff9e78;}.w{fill:#e08344;}.x{fill:#db1f1f;}.y{fill:#c61414;}.z{fill:#c14616;}.aa{fill:#ffbc00;}.ab{fill:#f9bfa0;}.ac{fill:#d1652f;}.ad{fill:#f7eee2;}.ae{fill:#ba2237;}.af{fill:#eda900;}.ag{fill:#f5b391;}.ah{fill:#2d313d;}</style><clipPath id="a"><rect class="a" width="303" height="195" rx="10" transform="translate(36 102)"/></clipPath></defs><g transform="translate(-36 -136)"><g transform="translate(-706.888 -3193.309)"><g transform="translate(1063.493 3388.68) rotate(74)"><path class="b" d="M680.62,122.314a13.379,13.379,0,0,1,.953,4.083,11.726,11.726,0,0,1-.345,3.632,12.664,12.664,0,0,1-.534,1.631,14.488,14.488,0,0,1-.736,1.521,18.518,18.518,0,0,1-1.848,2.7,41.142,41.142,0,0,1-4.076,4.166,10.527,10.527,0,0,0-2.475,2.776,2.865,2.865,0,0,0-.2,1.49,2.448,2.448,0,0,0,.531,1.221,3.5,3.5,0,0,0,2.65,1.169c1.555.048,3.627-1.254,5.441-1.707a2.834,2.834,0,0,1,2.45.281,2.92,2.92,0,0,1,.908,1.182,7.888,7.888,0,0,1,.551,2.166,5.481,5.481,0,0,1,.031,1.23,4.607,4.607,0,0,1-.241,1.074,4.7,4.7,0,0,1-1.107,1.726,12.494,12.494,0,0,1-3.83,2.359c-2.944,1.305-6.208,2.445-7.386,4.8a3.2,3.2,0,0,0-.244,1.937,3.792,3.792,0,0,0,.98,1.968c1.065,1.167,3.005,1.937,5.959,1.249a7.386,7.386,0,0,1,5.172.537,4.391,4.391,0,0,1,1.828,1.926,5.887,5.887,0,0,1,.381,3.288,3.97,3.97,0,0,1-3.031,2.994,14.033,14.033,0,0,1-6.041.326c-2.237-.307-4.535-.932-6.692-1.348a14.692,14.692,0,0,0-5.624-.323c-2.575.568-4.687,2.294-7.37,3.953a29.032,29.032,0,0,1-4.583,2.346,27.435,27.435,0,0,1-6.073,1.605,12.714,12.714,0,0,1-4.958-.251,5.368,5.368,0,0,1-1.653-.7,1.253,1.253,0,0,1-.658-.966,1.956,1.956,0,0,1,.915-1.745,5.888,5.888,0,0,1,2.35-.78c1.865-.3,4.155-.182,5.7-.4a5.4,5.4,0,0,0,3.084-1.371c.581-.667.5-1.5-1.056-2.131-1.531-.626-3.683-.434-5.483-.483-1.272-.036-2.5-.077-3.677-.141s-2.349-.145-3.463-.268q-.839-.091-1.649-.213c-.546-.081-1.093-.17-1.626-.273s-1.06-.219-1.578-.35-1.05-.269-1.563-.426a15.715,15.715,0,0,1-2.1-.816,6.383,6.383,0,0,1-1.74-1.181,2.241,2.241,0,0,1-.49-.74,1.774,1.774,0,0,1-.128-.852,3.774,3.774,0,0,1,1.266-2.133,7.324,7.324,0,0,1,4.917-2.056,12.8,12.8,0,0,1,2.676.168,19.6,19.6,0,0,1,2.425.575,25.048,25.048,0,0,1,2.764,1.031c.933.381,1.833.794,2.789,1.142a15.838,15.838,0,0,0,2.971.8,10.379,10.379,0,0,0,3.345-.024,2.466,2.466,0,0,0,2.173-1.6,2.71,2.71,0,0,0-.739-2.538,6.091,6.091,0,0,0-2.122-1.443,12.318,12.318,0,0,0-2.625-.826,28.007,28.007,0,0,0-4.417-.454c-1.5-.043-2.974-.026-4.441-.009-1.09.015-2.219.059-3.335.091s-2.253.068-3.31.034a18.051,18.051,0,0,1-3-.3,7.047,7.047,0,0,1-2.439-.933,2.08,2.08,0,0,1-1.052-1.51,2.78,2.78,0,0,1,.481-1.78,6.47,6.47,0,0,1,4.1-2.706c2.559-.523,4.856.172,7.188.963,1.142.411,2.338.819,3.539,1.14a14.185,14.185,0,0,0,1.882.359,11.67,11.67,0,0,0,2,.082c1.538-.076,3.306-.945,3.559-2.447a2.007,2.007,0,0,0-.179-1.308,2.656,2.656,0,0,0-.843-.936,4.635,4.635,0,0,0-1.233-.612,9.914,9.914,0,0,0-1.352-.354,14.578,14.578,0,0,0-3.617-.2c-.608.033-1.217.091-1.826.167s-1.232.179-1.847.285c-1.054.182-2.117.39-3.171.592s-2.128.419-3.162.588c-.519.086-1.026.158-1.534.225s-1.013.124-1.5.163a18.268,18.268,0,0,1-2.835.01,7.4,7.4,0,0,1-2.23-.561,4.5,4.5,0,0,1-.917-.531,3.5,3.5,0,0,1-.712-.677,2.463,2.463,0,0,1-.423-.844,2.588,2.588,0,0,1-.086-.991,4.858,4.858,0,0,1,1.163-2.46,6.3,6.3,0,0,1,3.974-2.43c.242-.044.488-.076.736-.1s.49-.024.737-.022a42.858,42.858,0,0,1,5.857.862,6.828,6.828,0,0,0,3.063-.046,3,3,0,0,0,1.786-1.545,2.194,2.194,0,0,0-.182-2.071,3.427,3.427,0,0,0-.963-1.046,4.583,4.583,0,0,0-1.244-.6,9.441,9.441,0,0,0-2.857-.342,27.314,27.314,0,0,0-4.628.448c-.77.128-1.549.294-2.292.446l-2.157.455a19.044,19.044,0,0,1-2.451.36,10.2,10.2,0,0,1-2.55-.035,2.438,2.438,0,0,1-1.731-.9,2.649,2.649,0,0,1-.066-2.347,7.017,7.017,0,0,1,3.745-4.143,9.975,9.975,0,0,1,2.786-.884,12.462,12.462,0,0,1,1.444-.161,11.118,11.118,0,0,1,1.384.031c1.351.083,4.577.843,7.573,1.458.742.157,1.474.294,2.159.392a13.688,13.688,0,0,0,1.851.181c1.091.011,1.854-.232,1.979-.927.067-.37-.4-.831-1.014-1.266a13.685,13.685,0,0,0-1.991-1.08c-.293-.132-.58-.269-.878-.4l-.893-.376c-.6-.247-1.178-.506-1.772-.743-1.189-.473-2.336-.961-3.455-1.425-1.1-.489-2.168-.95-3.124-1.479-.476-.267-.949-.516-1.38-.8a14.491,14.491,0,0,1-1.217-.886,24.219,24.219,0,0,1-4.886-5.883c-.356-.562-.685-1.134-.977-1.709s-.547-1.151-.765-1.694a7.6,7.6,0,0,1-.625-3.068c.082-1.653,1.86-2.737,4.254-3.159a14.026,14.026,0,0,1,3.8-.067,15.066,15.066,0,0,1,1.881.37c.3.081.6.17.883.269s.551.219.808.342a15.7,15.7,0,0,1,2.559,1.494,16.729,16.729,0,0,1,2.136,1.8,20.633,20.633,0,0,1,1.763,1.986c.526.689,1.007,1.385,1.452,2.073.864,1.41,1.6,2.772,2.251,4.056a29.009,29.009,0,0,0,1.963,3.375,8.191,8.191,0,0,0,1.443,1.571,2.907,2.907,0,0,0,1.417.663c.878.093,1.628-.586,1.85-2.423a8.707,8.707,0,0,0-.617-3.652,24.923,24.923,0,0,0-2.04-4.162c-.8-1.383-1.726-2.655-2.509-3.754-.8-1.077-1.491-1.95-1.857-2.5a6.535,6.535,0,0,1-.986-6.024,3.083,3.083,0,0,1,1.864-1.758,4.927,4.927,0,0,1,3.4.321,8.507,8.507,0,0,1,1.353.677,9.745,9.745,0,0,1,1.152.821,8.433,8.433,0,0,1,.975.939,10.148,10.148,0,0,1,.8,1.06,14.808,14.808,0,0,1,1.961,5.038c.8,3.712.918,7.86,2.126,11.82a7.237,7.237,0,0,0,1.591,2.84,2.784,2.784,0,0,0,3.069.91,4.229,4.229,0,0,0,2.482-3.1,10.655,10.655,0,0,0,.234-4.431l-.39-2.277c-.13-.752-.282-1.475-.415-2.191s-.263-1.411-.376-2.085-.229-1.308-.311-1.921c-.324-2.458-.32-4.406.627-5.462a3.65,3.65,0,0,1,1.758-1.1,4.594,4.594,0,0,1,2.158-.046,9.549,9.549,0,0,1,4.583,2.588,13.986,13.986,0,0,1,1.025,1.091,13.6,13.6,0,0,1,.9,1.239,11.956,11.956,0,0,1,1.346,2.775,10.74,10.74,0,0,1,.544,3.018,8.93,8.93,0,0,1-.464,3.062,16.784,16.784,0,0,1-2.548,4.439c-1.123,1.506-2.419,3.029-3.625,4.556a29.663,29.663,0,0,0-3.1,4.565,8.194,8.194,0,0,0-1.12,4.482,4.977,4.977,0,0,0,1.971,3.815,3.258,3.258,0,0,0,3.146.488,8.613,8.613,0,0,0,2.843-2.144,14.8,14.8,0,0,0,2.2-3.455c.332-.691.65-1.441.963-2.253s.6-1.672.893-2.6.586-1.922.88-2.979.57-2.165.866-3.349A7.082,7.082,0,0,1,673,118.966a3.543,3.543,0,0,1,2.529-1.128C677.356,117.829,679.424,119.336,680.62,122.314Z" transform="translate(-615.342 -100.917)"/><path class="c" d="M676.551,139.4a26.575,26.575,0,0,1-2.514,4.6,101.889,101.889,0,0,1-6.24,8.114c-1.073,1.317-2.151,2.619-3.189,3.959a47.676,47.676,0,0,0-2.942,4.163,17.041,17.041,0,0,0-2.124,4.631,8.252,8.252,0,0,0-.282,2.727c-1.006-2.327-2.117-4.607-3.3-6.848a15.809,15.809,0,0,1-1.04-2.315,14.95,14.95,0,0,1-.677-2.454,16.817,16.817,0,0,1-.272-2.555c-.011-.432,0-.866.021-1.3s.048-.862.1-1.294a23.9,23.9,0,0,1,.446-2.59c.184-.85.412-1.7.673-2.54.531-1.692,1.158-3.34,1.834-4.971q.512-1.227,1.059-2.445l1.087-2.421c.731-1.613,1.487-3.242,2.185-4.885a50.6,50.6,0,0,0,1.885-5.078,17.737,17.737,0,0,0,.831-5.591,17.642,17.642,0,0,1-.889,5.56,50.7,50.7,0,0,1-1.938,5.042c-.71,1.628-1.486,3.25-2.233,4.855l-1.112,2.412c-.366.806-.734,1.622-1.083,2.439-.7,1.633-1.335,3.277-1.889,4.98-.272.848-.511,1.7-.706,2.562a26.319,26.319,0,0,0-.475,2.623,21.031,21.031,0,0,0-.143,2.646,16.589,16.589,0,0,0,.252,2.62,13.67,13.67,0,0,0,.4,1.689l-1.054-1.771-1.1-1.74a24.639,24.639,0,0,1-3.09-8.618c-.155-.766-.3-1.533-.43-2.315l-.378-2.348-.716-4.771a91.287,91.287,0,0,0-1.936-9.72,46.2,46.2,0,0,0-1.581-4.884c-.32-.807-.68-1.6-1.069-2.393-.2-.395-.4-.794-.617-1.181s-.453-.768-.695-1.148q.357.573.681,1.153c.215.388.411.789.6,1.185.381.8.73,1.591,1.041,2.4a46.158,46.158,0,0,1,1.523,4.887,91.7,91.7,0,0,1,1.827,9.722c.467,3.207.829,6.389,1.425,9.474.179,1,.391,1.985.656,2.949a22.017,22.017,0,0,0,.914,2.859A90.385,90.385,0,0,0,615.806,121.8l-.189.391a89.855,89.855,0,0,1,33.976,29.075,18.477,18.477,0,0,0-2.115-1.671,19.871,19.871,0,0,0-2.323-1.319,24.637,24.637,0,0,0-8.687-2.156c-.733-.057-1.482-.073-2.213-.081s-1.454,0-2.192.044c-1.469.082-2.892.2-4.329.4-.712.09-1.419.193-2.117.3l-2.1.349c-1.373.213-2.751.45-4.069.555,1.312-.08,2.694-.312,4.066-.507l2.1-.321c.7-.1,1.4-.189,2.117-.275,1.437-.185,2.854-.284,4.321-.351.733-.033,1.449-.027,2.183-.016s1.476.038,2.2.108a24.438,24.438,0,0,1,8.577,2.235,16.67,16.67,0,0,1,6.739,5.9h0c.551.869,1.113,1.731,1.628,2.622l.789,1.326.751,1.348a8.9,8.9,0,0,0-1.787-1.278,14.216,14.216,0,0,0-2.094-.9,18.1,18.1,0,0,0-2.192-.574c-.741-.145-1.468-.264-2.216-.339s-1.492-.123-2.233-.148a42.114,42.114,0,0,0-4.434.107c-1.456.1-2.93.275-4.369.474s-2.872.442-4.285.693l-4.186.753a35.178,35.178,0,0,1-4.027.506,34.925,34.925,0,0,0,4.021-.46l4.187-.705,2.137-.345c.716-.11,1.425-.2,2.147-.3s1.446-.176,2.177-.251,1.45-.125,2.184-.169,1.467-.072,2.208-.086,1.467,0,2.207.035,1.476.089,2.216.173,1.457.212,2.185.365a15.026,15.026,0,0,1,4.18,1.5,8.886,8.886,0,0,1,1.777,1.318,7.4,7.4,0,0,1,.744.818,7.034,7.034,0,0,1,.589.931h0a86.272,86.272,0,0,1,3.695,8.03h0l.3.745.282.753.564,1.5c-.1-.112-.194-.224-.3-.329a10.956,10.956,0,0,0-1.965-1.5,19.782,19.782,0,0,0-4.486-1.878q-1.163-.337-2.326-.593c-.781-.169-1.575-.308-2.359-.43s-1.565-.226-2.352-.308-1.581-.145-2.364-.2c-1.557-.111-3.136-.15-4.687-.161s-3.1.019-4.619.058-3.046.109-4.505.127c-.725,0-1.471.021-2.181,0a17.459,17.459,0,0,1-2.062-.173,17.154,17.154,0,0,0,2.053.195c.709.028,1.452.02,2.175.023,1.459,0,2.992-.065,4.5-.081s3.073-.043,4.61-.009q1.16.021,2.338.067c.78.034,1.551.085,2.335.145s1.568.134,2.356.223,1.556.205,2.338.335a35.682,35.682,0,0,1,4.643,1.072,21.085,21.085,0,0,1,2.25.815,16.845,16.845,0,0,1,2.14,1.086,10.73,10.73,0,0,1,1.879,1.466,5.734,5.734,0,0,1,1.251,1.976h0c.255.72.473,1.452.7,2.182l.335,1.1c.108.366.2.736.305,1.1h0l.44,1.612.389,1.625a4.046,4.046,0,0,0-.916-.66,7.422,7.422,0,0,0-1.145-.489,12.258,12.258,0,0,0-1.2-.32,31.428,31.428,0,0,0-4.862-.564c-1.625-.08-3.259-.1-4.871-.118l-4.817-.031c-1.6-.018-3.182-.047-4.727-.125-1.566-.072-3.09-.193-4.54-.4-.736-.1-1.453-.224-2.138-.377a18.5,18.5,0,0,1-1.964-.555,10.646,10.646,0,0,1-1.724-.77,7.244,7.244,0,0,1-1.434-1,7.149,7.149,0,0,0,1.415,1.015,10.488,10.488,0,0,0,1.712.79,18.207,18.207,0,0,0,1.956.576c.683.161,1.4.29,2.135.4,1.448.223,2.979.358,4.543.448,1.545.094,3.136.14,4.736.176l4.819.088c1.611.034,3.255.076,4.859.181a31.143,31.143,0,0,1,4.811.62,8.62,8.62,0,0,1,2.236.8,2.863,2.863,0,0,1,1.346,1.372,7.484,7.484,0,0,0-2.462.142,11.845,11.845,0,0,0-2.6.951c-1.66.807-3.192,1.772-4.8,2.581a20.349,20.349,0,0,1-5.073,1.86,18.993,18.993,0,0,1-5.4.317,19.14,19.14,0,0,0,5.42-.231,20.716,20.716,0,0,0,5.156-1.783c1.632-.782,3.187-1.718,4.833-2.474a8.545,8.545,0,0,1,5.187-.9l.041-.212.18.117a6.4,6.4,0,0,1,1.465-1.614,5.882,5.882,0,0,1,1.967-.968,12.478,12.478,0,0,1,4.476-.263c1.525.131,3.029.4,4.552.555a9.031,9.031,0,0,0,4.5-.4,9.047,9.047,0,0,1-4.494.273c-.758-.1-1.512-.222-2.265-.344s-1.521-.237-2.283-.322a12.617,12.617,0,0,0-4.576.171,6.236,6.236,0,0,0-2.1.984,6.335,6.335,0,0,0-1.307,1.293l-.5-2.082c-.16-.7-.368-1.379-.549-2.069a11.871,11.871,0,0,1-.464-3.276,7.649,7.649,0,0,1,.745-3.227,9.834,9.834,0,0,1,1.97-2.723,17.579,17.579,0,0,1,2.653-2.131,52.126,52.126,0,0,1,5.968-3.277c1.019-.5,2.041-1,3.041-1.545a16.587,16.587,0,0,0,2.86-1.885,16.616,16.616,0,0,1-2.889,1.827c-1.008.525-2.038,1-3.065,1.489a51.135,51.135,0,0,0-6.035,3.191,17.785,17.785,0,0,0-2.723,2.124,10.013,10.013,0,0,0-2.07,2.782,7.944,7.944,0,0,0-.833,3.366c-.007.147,0,.293,0,.44-.086-.275-.166-.552-.256-.825l-.279-.818-.557-1.637-.606-1.619c-.2-.541-.4-1.08-.628-1.611a7.028,7.028,0,0,1-.5-2.348,7.927,7.927,0,0,1,.256-2.422,16.594,16.594,0,0,1,2.042-4.544,47.109,47.109,0,0,1,2.877-4.154c1.033-1.35,2.086-2.656,3.147-3.983s2.142-2.654,3.175-4,2.042-2.737,2.986-4.193a26.6,26.6,0,0,0,2.471-4.653,15.127,15.127,0,0,0,.788-2.655,10.547,10.547,0,0,0,.125-2.935,10.441,10.441,0,0,1-.155,2.921A14.937,14.937,0,0,1,676.551,139.4Z" transform="translate(-615.539 -112.31)"/></g><g transform="translate(968.488 3417.372)"><g transform="translate(0 0)"><path class="d" d="M576.845,225.779c.711-.357,1.367-.717,1.972-1.075s1.188-.719,1.711-1.075a21.187,21.187,0,0,0,2.608-2.073,14.449,14.449,0,0,0,2.745-3.411c.13-.239-.257-.439-.465-.24a13.219,13.219,0,0,1-3.085,2.144,19.836,19.836,0,0,1-2.485,1.075,23.374,23.374,0,0,1-3.241.879c-3.48.691-6.144,1.545-7.993,2.923a6.637,6.637,0,0,0-2.09,2.5,7.6,7.6,0,0,0-.56,1.621q-.1.44-.162.916-.03.238-.051.486c-.008.164-.011.332-.011.5-.067-.436-.1-.876-.145-1.315l-.125-1.318-.248-2.635c.333-1.761,1.691-2.447,3.7-3.043,1-.3,2.168-.574,3.448-.942.64-.184,1.309-.39,2-.631s1.405-.518,2.155-.84a25.415,25.415,0,0,0,6.494-3.885,12.858,12.858,0,0,0,2.931-3.258c.139-.232-.24-.452-.455-.264a12.957,12.957,0,0,1-3.164,1.977,21.507,21.507,0,0,1-5.855,1.647c-3.5.506-6.2,1.217-8.1,2.5a7.652,7.652,0,0,0-1.28,1.071,6,6,0,0,0-.968,1.315,8.768,8.768,0,0,0-.948,3.478l-.185-3.442a3.886,3.886,0,0,1,.589-1.393,6.076,6.076,0,0,1,1.05-1.2,14.723,14.723,0,0,1,3.136-2.015c1.214-.623,2.64-1.223,4.085-1.868s2.958-1.337,4.417-2.138q.476-.261.881-.537c.273-.184.536-.371.771-.562a7.464,7.464,0,0,0,1.185-1.186,6.116,6.116,0,0,0,1.176-2.5,6.993,6.993,0,0,0,.153-2.4,12.819,12.819,0,0,0-.393-1.965.289.289,0,0,0-.54-.009,5.2,5.2,0,0,1-.389,1,5.1,5.1,0,0,1-.629.914,10.3,10.3,0,0,1-1.9,1.667c-.374.267-.788.53-1.2.8s-.84.532-1.285.8c-.889.539-1.836,1.092-2.793,1.682a24.722,24.722,0,0,0-5.353,4.18,14.673,14.673,0,0,0-1.083,1.308,9.936,9.936,0,0,0-.867,1.44,10.8,10.8,0,0,0-1.04,3.314l-.029-2.282a6.539,6.539,0,0,1,.723-2.124,11.567,11.567,0,0,1,1.393-1.846c1.12-1.252,2.547-2.684,4.421-4.9a13.534,13.534,0,0,0,1.039-1.427q.23-.363.43-.731.218-.366.409-.735a15.06,15.06,0,0,0,1.152-2.96c.125-.491.262-.971.37-1.443s.194-.936.261-1.385.116-.886.151-1.3.057-.815.083-1.187a.281.281,0,0,0-.547-.089c-.15.46-.284.974-.487,1.522a18.53,18.53,0,0,1-.739,1.757,31.08,31.08,0,0,1-2.41,4.127c-.374.532-.744,1.013-1.105,1.46-.342.448-.679.861-1.007,1.254-.657.787-1.28,1.5-1.849,2.262a10.306,10.306,0,0,0-1.444,2.607,13.506,13.506,0,0,0-.523,1.69,12.55,12.55,0,0,0-.342,2.083c-.029-.921.026-1.841.044-2.762a27.7,27.7,0,0,1,.565-2.757c.264-.907.567-1.806.871-2.711l.458-1.364c.078-.228.147-.459.23-.688l.25-.693c.329-.928.637-1.877.9-2.864.241-.99.535-2.006.715-3.087.1-.54.173-1.095.229-1.667l.076-.872q.045-.44.075-.9a27.6,27.6,0,0,0-.055-3.928,35.075,35.075,0,0,0-.557-4.594.279.279,0,0,0-.491-.128,31.688,31.688,0,0,0-2.607,3.916,24.834,24.834,0,0,0-1.584,3.758q-.15.456-.279.9c-.086.3-.144.6-.208.895-.121.592-.218,1.173-.294,1.745a19.212,19.212,0,0,0-.187,3.316c.034,1.071.122,2.106.237,3.112q.046.376.091.749c.033.248.082.5.123.741l.263,1.457c.177.961.347,1.9.491,2.84.178.938.324,1.87.409,2.811-.018.923-.073,1.845-.044,2.769-.1-.773-.176-1.467-.292-2.1a14.157,14.157,0,0,0-.427-1.735,17.374,17.374,0,0,0-1.217-2.8c-.456-.856-.974-1.68-1.511-2.619-.269-.469-.542-.968-.815-1.513-.254-.544-.5-1.135-.746-1.792a20.8,20.8,0,0,1-1.255-5.138c-.085-.773-.126-1.5-.137-2.172a13.967,13.967,0,0,1,.067-1.846.277.277,0,0,0-.543-.108,13.474,13.474,0,0,0-.344,1.349c-.1.479-.2.985-.281,1.512s-.152,1.076-.2,1.64a13.3,13.3,0,0,0-.065,1.738,19.1,19.1,0,0,0,.422,3.627q.1.456.227.909.143.454.317.9a14.355,14.355,0,0,0,.818,1.758,37.672,37.672,0,0,0,3.932,5.68,13.523,13.523,0,0,1,1.293,1.937,6.934,6.934,0,0,1,.778,2.14l.029,2.288a11.323,11.323,0,0,0-1.125-3.317c-.259-.513-.576-1.008-.88-1.489s-.646-.947-1.007-1.4a50.663,50.663,0,0,0-4.969-5.068c-.861-.8-1.715-1.6-2.511-2.4-.4-.4-.782-.8-1.146-1.208s-.683-.812-.988-1.225a11.093,11.093,0,0,1-1.436-2.548,7.431,7.431,0,0,1-.38-1.339,5.206,5.206,0,0,1-.082-1.389.272.272,0,0,0-.517-.158,13.466,13.466,0,0,0-1.4,5.66,9.07,9.07,0,0,0,.735,3.517,8.528,8.528,0,0,0,.985,1.706,8.234,8.234,0,0,0,.683.81,10.2,10.2,0,0,0,.845.771,32.228,32.228,0,0,0,4.276,2.9c1.419.818,2.758,1.522,4.015,2.21a18.5,18.5,0,0,1,3.189,2.1,6.476,6.476,0,0,1,1.08,1.182,5.027,5.027,0,0,1,.657,1.366l.185,3.45a9.251,9.251,0,0,0-1.317-3.4,8.591,8.591,0,0,0-1.034-1.292,8.354,8.354,0,0,0-1.307-1.07c-1.937-1.295-4.652-2.092-8.172-2.757a14.782,14.782,0,0,1-5.758-2.314,11.919,11.919,0,0,1-3.024-3c-.2-.292-.595-.018-.472.331a15.713,15.713,0,0,0,2.706,4.753,19.777,19.777,0,0,0,8.82,5.707c.717.227,1.407.406,2.065.557,1.316.3,2.506.488,3.537.7,2.061.432,3.485.973,4,2.672l.248,2.642.125,1.321c.042.44.078.881.145,1.319q-.069-.248-.145-.486t-.141-.466q-.149-.455-.331-.87a8.084,8.084,0,0,0-.856-1.509,8.337,8.337,0,0,0-2.491-2.233c-1.987-1.192-4.732-1.844-8.275-2.323a16.788,16.788,0,0,1-3.33-.786,13,13,0,0,1-2.576-1.217,11.74,11.74,0,0,1-3.148-2.839c-.215-.281-.595.013-.457.355a14.329,14.329,0,0,0,2.963,4.6,17.5,17.5,0,0,0,2.849,2.424,19.125,19.125,0,0,0,1.828,1.1,21.985,21.985,0,0,0,2.165.976,33.694,33.694,0,0,0,7.9,1.694c2.085.321,3.487.792,4.16,2.454l.4,2.908c.057.486.156.965.238,1.447l.257,1.445a8.5,8.5,0,0,0-4.284-5.326,14.485,14.485,0,0,0-3.661-1.218,37.283,37.283,0,0,0-4.747-.622,14.974,14.974,0,0,1-5.994-1.662,11.162,11.162,0,0,1-3.329-2.649c-.226-.268-.593.048-.441.381,1.169,2.463,4.015,6.48,10.333,8.52a32.96,32.96,0,0,0,7.971,1.238c2.1.2,3.584.58,4.307,2.208l.255,1.427.312,1.415.624,2.831a8.492,8.492,0,0,0-4.349-5.059c-1.993-.964-4.617-1.32-7.954-1.42a15.1,15.1,0,0,1-3.135-.411,12.327,12.327,0,0,1-2.482-.9A11.43,11.43,0,0,1,546.632,234c-.246-.261-.6.065-.42.394a15.507,15.507,0,0,0,1.273,1.992,13.82,13.82,0,0,0,2.019,2.187,17.809,17.809,0,0,0,6.826,3.676,30.353,30.353,0,0,0,7.548.863,7.768,7.768,0,0,1,2.52.444,3.046,3.046,0,0,1,.925.585,3.844,3.844,0,0,1,.714.955l.759,2.872c.131.477.244.96.388,1.434l.439,1.419a13.128,13.128,0,0,0-.892-1.644,8.581,8.581,0,0,0-.98-1.328,7.417,7.417,0,0,0-2.473-1.8,9.853,9.853,0,0,0-1.512-.535,13.246,13.246,0,0,0-1.684-.342,27.214,27.214,0,0,0-4.018-.208,11.786,11.786,0,0,1-5.038-1.011,9.857,9.857,0,0,1-3.1-2.154c-.247-.251-.593.082-.413.4.163.287.349.593.559.91s.468.644.741.978a16.311,16.311,0,0,0,1.989,2.027,14.97,14.97,0,0,0,2.735,1.873,17.6,17.6,0,0,0,3.613,1.409,25.205,25.205,0,0,0,6.806.6c1.784.035,3.1.279,3.957,1.767l.429,1.388c.073.231.139.464.219.693l.244.684.974,2.738c.308.919.687,1.811,1.048,2.71l1.09,2.694.256-.11-1.087-2.688c-.361-.9-.738-1.787-1.046-2.7l-.972-2.731-.243-.683c-.079-.228-.145-.461-.218-.691l-.428-1.385c-.126-1.716.821-2.611,2.32-3.552a38.084,38.084,0,0,0,5.656-3.756,22.819,22.819,0,0,0,2.563-2.564,20.047,20.047,0,0,0,1.766-2.386,14.222,14.222,0,0,0,1.08-2.095c.133-.32.235-.621.336-.907s.187-.555.255-.8c.075-.272-.351-.391-.509-.141a10.618,10.618,0,0,1-.887,1.2,12.227,12.227,0,0,1-1.285,1.332,15.3,15.3,0,0,1-4.236,2.627,24.824,24.824,0,0,0-3.572,1.814,12.444,12.444,0,0,0-1.386,1.011,8.122,8.122,0,0,0-1.081,1.115,6.627,6.627,0,0,0-1.289,2.688,8.325,8.325,0,0,0-.2,1.633,10.772,10.772,0,0,0,.176,1.843l-.438-1.415c-.144-.473-.257-.954-.387-1.43l-.757-2.865a2.794,2.794,0,0,1,.2-1.169,3.021,3.021,0,0,1,.592-.926,7.4,7.4,0,0,1,2.1-1.443,46.672,46.672,0,0,0,6.575-3.55,23.588,23.588,0,0,0,5.3-4.825,18.316,18.316,0,0,0,1.389-2.047,11.019,11.019,0,0,0,.777-1.659c.1-.261-.319-.412-.5-.181a12.285,12.285,0,0,1-2.605,2.453A17.028,17.028,0,0,1,579.96,233a20.382,20.382,0,0,1-2.854,1.193c-3.133,1.048-5.494,2.17-7.04,3.719-1.577,1.554-2.2,3.518-1.978,6.225l-.623-2.824-.311-1.412-.255-1.423c.116-1.784,1.383-2.614,3.305-3.427a55.812,55.812,0,0,0,7.321-3.242c5.515-3.184,7.712-6.308,8.561-8.141.121-.246-.272-.424-.473-.213a14.106,14.106,0,0,1-2.934,2.317,21.164,21.164,0,0,1-5.621,2.283,33.729,33.729,0,0,0-4.549,1.469,12.327,12.327,0,0,0-3.25,1.907,7.124,7.124,0,0,0-2.517,6.178l-.256-1.441c-.082-.481-.181-.959-.238-1.444l-.394-2.9c.173-1.768,1.542-2.531,3.51-3.231A54.231,54.231,0,0,0,576.845,225.779Z" transform="translate(-543.682 -187.919)"/></g></g><g transform="translate(957.344 3456.389)"><path class="b" d="M470.107,393.21a6.145,6.145,0,0,1,.392.894,5.238,5.238,0,0,1,.214.964,8.251,8.251,0,0,1-.033,2.124c-.049.371-.117.748-.2,1.129s-.173.75-.28,1.129c-.214.758-.478,1.522-.764,2.269-1.142,2.994-2.664,5.708-2.692,6.8a1.771,1.771,0,0,0,.219.973,1.04,1.04,0,0,0,.636.446,2.247,2.247,0,0,0,1.86-.6c.906-.736,1.75-2.461,2.655-3.607a2.748,2.748,0,0,1,1.391-1.105,1.075,1.075,0,0,1,.736.121,2.415,2.415,0,0,1,.806.725c1.085,1.416.247,3.638-.819,5.944s-2.38,4.7-1.969,6.548a1.993,1.993,0,0,0,2.149,1.484c1.089-.108,2.359-1.018,3.355-3.182a8.134,8.134,0,0,1,2.449-3.133,2.4,2.4,0,0,1,1.506-.491,2.076,2.076,0,0,1,1.512.81c.532.6.578,1.72.261,3.05a13.664,13.664,0,0,1-1.983,4.312,39.6,39.6,0,0,1-3.357,4.067,14.1,14.1,0,0,0-2.618,3.6c-.78,1.924-.523,4.065-.323,6.629a20.871,20.871,0,0,1-.9,9.073,6.089,6.089,0,0,1-2.56,3.115,3.481,3.481,0,0,1-3.259.415,2.535,2.535,0,0,1-1.573-1.724,2.806,2.806,0,0,1,.49-1.907c.764-1.286,2.126-2.586,2.717-3.667a3.492,3.492,0,0,0,.349-2.7c-.288-.749-1.02-1.143-2.431-.626s-2.548,1.857-3.717,2.762a24.961,24.961,0,0,1-5.285,3.255c-.479.21-.972.4-1.481.578s-1.021.306-1.559.429a19.714,19.714,0,0,1-3.479.453,13.646,13.646,0,0,1-5.749-.963,7.648,7.648,0,0,1-1.285-.688,4.539,4.539,0,0,1-1-.931,3.512,3.512,0,0,1-.767-2.542c.141-1.68,1.4-2.545,2.989-3.02a13.615,13.615,0,0,1,2.539-.459c.432-.038.874-.079,1.3-.112s.846-.054,1.24-.074c2.005-.1,4.1.064,6.079-.225a7.5,7.5,0,0,0,4.965-2.308,1.8,1.8,0,0,0,.3-2.175,3.3,3.3,0,0,0-2.15-1.4,5.69,5.69,0,0,0-1.144-.137c-.409-.007-.818-.012-1.241.022a14.467,14.467,0,0,0-2.431.4c-.632.16-1.257.343-1.881.542s-1.248.417-1.857.615c-1.226.409-2.457.838-3.722,1.207-.936.273-1.917.562-2.932.811a20.671,20.671,0,0,1-3.095.515,11.237,11.237,0,0,1-6.391-1.117,5.518,5.518,0,0,1-2.1-1.778,2.951,2.951,0,0,1-.432-.994,2.754,2.754,0,0,1-.054-.979,3.215,3.215,0,0,1,2.9-2.583,12.576,12.576,0,0,1,3.6,0c1.233.154,2.473.435,3.717.676a27.3,27.3,0,0,0,3.72.449,10.784,10.784,0,0,0,1.769-.08,7.456,7.456,0,0,0,1.7-.45,2.234,2.234,0,0,0,1.342-3.536,2.281,2.281,0,0,0-.4-.441,2.936,2.936,0,0,0-1.046-.549,7.53,7.53,0,0,0-2.482-.222,19.907,19.907,0,0,0-3.128.42c-1.024.219-2.042.5-3.074.794-.884.248-1.79.5-2.716.727a28.031,28.031,0,0,1-2.793.514,17.944,17.944,0,0,1-2.9.146,14.78,14.78,0,0,1-1.485-.126,10.721,10.721,0,0,1-1.479-.32,10.607,10.607,0,0,1-2.612-1.171,10.751,10.751,0,0,1-1.2-.86,7.36,7.36,0,0,1-.986-1.022c-1.148-1.438-1.555-3.085-.343-4.5,1.289-1.5,3.149-1.477,5.085-1,.484.12.975.269,1.464.431l.734.25.745.242c.987.324,1.942.642,2.809.838a5.136,5.136,0,0,0,2.781.122c1.461-.6,1.621-2.006.713-3.234-1.176-1.563-3.025-1.88-4.737-2.189-1.339-.221-2.775-.344-4.218-.463-1.428-.131-2.836-.281-4.169-.49a15.229,15.229,0,0,1-2.4-.6,10.894,10.894,0,0,1-2.52-1.258,4.843,4.843,0,0,1-1.707-1.844,2.305,2.305,0,0,1-.217-1.124,2.89,2.89,0,0,1,.369-1.235,4.039,4.039,0,0,1,4-1.889,12.553,12.553,0,0,1,2.6.413,14.931,14.931,0,0,1,2.495.909c.288.135.674.339,1.128.584s1.007.507,1.585.8,1.2.588,1.835.882c.316.147.635.291.953.431l.476.206c.161.065.325.124.485.184,2.582.955,4.831,1.417,5.01.269.1-.61-1.508-1.611-2.453-2.158-.237-.139-.483-.273-.716-.419l-.7-.445-1.4-.909c-.466-.308-.93-.62-1.385-.937l-.34-.239-.324-.252-.635-.511a27.127,27.127,0,0,1-2.323-2.119,12.99,12.99,0,0,1-1.7-2.3,15.993,15.993,0,0,1-1.874-6.566c-.1-2.333.271-4.421,1.179-5.517.821-.992,2.5-.811,4.17-.124a12.275,12.275,0,0,1,2.418,1.361,8.865,8.865,0,0,1,1.95,1.727,15.557,15.557,0,0,1,2.045,3.384q.186.435.344.874c.106.292.2.591.3.874.2.573.375,1.149.53,1.721a30.1,30.1,0,0,0,1.874,6.031c.071.133.142.263.219.384s.162.23.246.336a4.4,4.4,0,0,0,.517.555,2.01,2.01,0,0,0,1.049.547c.677.083,1.262-.453,1.564-1.818a6.9,6.9,0,0,0-.082-2.676,21.918,21.918,0,0,0-.763-3.083c-.337-1-.627-2-.9-2.829s-.49-1.5-.586-1.909a4.39,4.39,0,0,1,1.38-4.065,2.935,2.935,0,0,1,3.8-.288c.116.083.221.17.324.257a3.908,3.908,0,0,1,.3.262,3.449,3.449,0,0,1,.475.573,3.741,3.741,0,0,1,.535,1.336,5.686,5.686,0,0,1,.1.758c.009.131.013.264.015.4s.01.266.01.4a15.33,15.33,0,0,1-.114,1.734c-.069.609-.16,1.246-.251,1.9l-.133,1c-.039.336-.065.668-.09,1.008a15.787,15.787,0,0,0,.178,4.154c.271,1.175,1.409,3.088,3.206,2.12a4.293,4.293,0,0,0,1.815-2.539,9.305,9.305,0,0,0,.452-3.014c-.014-.485-.027-.964-.04-1.435s.01-.943.024-1.392a21.7,21.7,0,0,1,.22-2.508,5.558,5.558,0,0,1,1.574-3.466,4.721,4.721,0,0,1,1.354-.83,3.951,3.951,0,0,1,1.34-.269,3.116,3.116,0,0,1,2.267.859,3.157,3.157,0,0,1,.406.48,3.669,3.669,0,0,1,.35.55,4.082,4.082,0,0,1,.409,1.368,5.905,5.905,0,0,1-.05,1.7,8.4,8.4,0,0,1-.56,1.949c-.837,2.008-2.739,4.6-4.329,7.174a22.023,22.023,0,0,0-1.956,3.8,5.568,5.568,0,0,0-.321,3.35,2.687,2.687,0,0,0,2,2.094,2.386,2.386,0,0,0,2.247-.678,11.633,11.633,0,0,0,2.47-5.294c.133-.542.258-1.111.381-1.708l.4-1.913c.277-1.338.582-2.8.973-4.383a7.246,7.246,0,0,1,.469-1.332,6.573,6.573,0,0,1,.658-1.107,4.821,4.821,0,0,1,1.6-1.426A1.95,1.95,0,0,1,470.107,393.21Z" transform="translate(-420.162 -384.802)"/><path class="c" d="M477.339,399.529c-.326,1.2-.749,2.406-1.189,3.614-.883,2.417-1.861,4.858-2.673,7.3a32.938,32.938,0,0,0-1.771,7.614,12.307,12.307,0,0,0,0,1.964,8.3,8.3,0,0,0,.385,1.94,6.134,6.134,0,0,0,1.031,1.906c-1.714-1.074-3.463-2.1-5.107-3.276a11.971,11.971,0,0,1-1.565-1.277,9.08,9.08,0,0,1-1.246-1.584,9.962,9.962,0,0,1-.892-1.787q-.177-.464-.308-.941t-.194-.988a17.634,17.634,0,0,1,.853-7.877,58.142,58.142,0,0,1,3.005-7.395c.572-1.212,1.153-2.412,1.687-3.612a20.644,20.644,0,0,0,1.292-3.586,20.722,20.722,0,0,1-1.326,3.577c-.545,1.195-1.138,2.39-1.721,3.6-.3.607-.578,1.2-.855,1.806s-.55,1.21-.812,1.822c-.525,1.225-1.012,2.473-1.423,3.754a22.8,22.8,0,0,0-.929,3.923,14.842,14.842,0,0,0-.019,4.033q.071.507.188,1.011a8.182,8.182,0,0,0,.3.974,10.253,10.253,0,0,0,.9,1.848,10.5,10.5,0,0,0,.8,1.123l-2.621-1.986a8.152,8.152,0,0,1-1.306-1.252,13.448,13.448,0,0,1-1.085-1.446q-.247-.378-.471-.768l-.219-.393c-.069-.134-.133-.273-.2-.411-.254-.552-.48-1.112-.683-1.673s-.385-1.133-.549-1.7c-.081-.286-.163-.566-.229-.857s-.126-.587-.183-.88c-.229-1.173-.4-2.342-.536-3.494-.076-.569-.1-1.172-.145-1.753s-.066-1.166-.092-1.743-.047-1.143-.071-1.716c-.014-.281-.018-.569-.018-.859s0-.574-.007-.862c-.015-1.141-.027-2.266-.089-3.36a24.035,24.035,0,0,0-.273-3.263,24.05,24.05,0,0,1,.232,3.27c.048,1.1.047,2.221.048,3.363,0,.568-.014,1.158,0,1.724s.034,1.146.051,1.718.043,1.16.073,1.746l.049.883c.017.3.038.592.072.879a30.025,30.025,0,0,0,1.424,6.994,21.364,21.364,0,0,0,.9,2.181,15.385,15.385,0,0,0,1.259,2,91.36,91.36,0,0,1-22.847-28.4l-.3.156a91.56,91.56,0,0,0,22.589,28.217c-.637-.346-1.314-.635-1.981-.921a19.69,19.69,0,0,0-2.044-.762c-.6-.189-1.209-.355-1.827-.5l-.465-.107-.455-.113q-.457-.11-.919-.207c-1.233-.261-2.494-.46-3.77-.626s-2.515-.352-3.8-.5-2.593-.28-3.859-.476a33.861,33.861,0,0,1-7.752-1.759,20.9,20.9,0,0,0,3.867,1.162c1.307.273,2.6.488,3.882.689l.957.147c.319.048.648.084.971.126l1.93.246,1.9.259.942.141c.311.05.624.1.945.14a45.686,45.686,0,0,1,7.374,1.627q.886.288,1.733.652l.421.188.427.184q.425.187.837.394a16.544,16.544,0,0,1,1.593.914c.514.33.993.708,1.487,1.07h0l1.979,1.5.99.75,1.023.7a8.489,8.489,0,0,0-.871-.2c-.147-.027-.3-.049-.442-.07s-.29-.046-.435-.063a17.216,17.216,0,0,0-3.714.042c-.619.063-1.25.158-1.859.24s-1.221.179-1.833.284c-1.224.211-2.453.458-3.69.7s-2.463.479-3.7.7-2.5.423-3.772.592c-.636.081-1.287.165-1.926.214s-1.283.082-1.935.1a19.036,19.036,0,0,1-4-.3,19.192,19.192,0,0,0,4.01.343c.654-.005,1.3-.031,1.942-.072s1.3-.119,1.936-.194c1.281-.154,2.541-.344,3.785-.548l1.855-.313c.614-.1,1.245-.233,1.862-.347,1.239-.232,2.468-.465,3.69-.661.611-.1,1.219-.187,1.826-.261s1.235-.165,1.851-.223a16.846,16.846,0,0,1,3.648,0,7.462,7.462,0,0,1,3.37,1.13h0c.965.692,1.989,1.292,2.994,1.922l1.513.937c.509.3,1.034.581,1.551.873h0l2.262,1.257c-.116-.018-.233-.036-.349-.048a10.124,10.124,0,0,0-2,.074,19.658,19.658,0,0,0-1.977.365c-.327.075-.657.163-.979.244s-.641.162-.962.248c-1.28.352-2.56.749-3.848,1.166l-1.934.632-1.924.6c-2.576.791-5.241,1.617-7.938,2.163a40.885,40.885,0,0,1-4.18.675,17.848,17.848,0,0,1-2.159.093,14.117,14.117,0,0,1-2.221-.2,14.256,14.256,0,0,0,2.226.226,17.774,17.774,0,0,0,2.169-.071,41.278,41.278,0,0,0,4.2-.632q1.023-.2,2.026-.435c.664-.148,1.347-.339,2.011-.516,1.333-.363,2.644-.746,3.939-1.132l1.93-.581,1.941-.615c1.289-.4,2.568-.785,3.843-1.12l.959-.24c.324-.083.649-.162.973-.234a19.282,19.282,0,0,1,1.947-.337,9.785,9.785,0,0,1,1.933-.05c.314.041.634.085.944.155a4.5,4.5,0,0,1,.894.3h0l1.654.818.827.409c.278.132.563.248.844.373h0l2.468,1.075a3.39,3.39,0,0,0-.863.258,8.528,8.528,0,0,0-1.7,1.047c-1.052.8-2.013,1.707-2.98,2.606a76.883,76.883,0,0,1-5.934,5.173,30.156,30.156,0,0,1-3.366,2.228,19.585,19.585,0,0,1-3.79,1.607,16.33,16.33,0,0,1-2.107.479q-.545.086-1.107.131a10.641,10.641,0,0,1-1.123.02,14.573,14.573,0,0,1-4.629-.9,14.694,14.694,0,0,0,4.638.951,11.512,11.512,0,0,0,2.247-.131,16.5,16.5,0,0,0,2.127-.46,19.548,19.548,0,0,0,3.835-1.577,30.521,30.521,0,0,0,3.409-2.2c1.074-.794,2.092-1.636,3.082-2.5q.742-.646,1.466-1.3l.724-.656.727-.67c.972-.887,1.937-1.777,2.975-2.554a8.187,8.187,0,0,1,1.637-.99,2.372,2.372,0,0,1,1.526-.191,5.876,5.876,0,0,0-1.029,1.643,8.092,8.092,0,0,0-.534,2.132c-.174,1.442-.113,2.893-.159,4.34a14.252,14.252,0,0,1-.655,4.257,9.187,9.187,0,0,1-2.32,3.636,9.22,9.22,0,0,0,2.412-3.6,14.272,14.272,0,0,0,.749-4.274c.075-1.452.044-2.907.241-4.32a6.4,6.4,0,0,1,1.721-3.783l-.125-.117.159-.069a4.2,4.2,0,0,1-.38-1.677,4.633,4.633,0,0,1,.307-1.7,11.711,11.711,0,0,1,1.827-3c.721-.92,1.5-1.833,2.191-2.8a9.067,9.067,0,0,0,1.594-3.179,8.974,8.974,0,0,1-1.653,3.131c-.357.474-.733.933-1.114,1.39s-.762.894-1.138,1.352a11.989,11.989,0,0,0-1.938,3.015,4.908,4.908,0,0,0-.371,1.8,4.71,4.71,0,0,0,.224,1.449l-3.134-1.365a6.978,6.978,0,0,1-2.185-1.462,5.2,5.2,0,0,1-1.583-3.477,7.778,7.778,0,0,1,.03-1.323,12.72,12.72,0,0,1,.582-2.592,40.082,40.082,0,0,1,2.107-4.92c.39-.805.786-1.608,1.159-2.421a21.079,21.079,0,0,0,.989-2.48,21.007,21.007,0,0,1-1.022,2.466c-.384.807-.791,1.6-1.194,2.4a40.753,40.753,0,0,0-2.192,4.905,12.913,12.913,0,0,0-.634,2.619,6.942,6.942,0,0,0,.161,2.706,5.561,5.561,0,0,0,1.385,2.322c.082.084.171.158.257.238l-2.474-1.224-2.413-1.34a5.09,5.09,0,0,1-.792-.541,4.033,4.033,0,0,1-.665-.683,5.875,5.875,0,0,1-.9-1.69,10,10,0,0,1-.42-3.8,32.753,32.753,0,0,1,1.675-7.59c.4-1.235.819-2.439,1.265-3.665l1.328-3.656c.428-1.213.84-2.425,1.155-3.627a15.483,15.483,0,0,0,.366-1.785,7.249,7.249,0,0,0,.075-1.737,7.313,7.313,0,0,1-.093,1.74A15.631,15.631,0,0,1,477.339,399.529Z" transform="translate(-429.817 -386.346)"/></g><g transform="translate(959.119 3451.719)"><path class="e" d="M556.645,367.539a16.483,16.483,0,0,0,6.9-4.9,10.38,10.38,0,0,0,2-4.006,9.369,9.369,0,0,0-.252-4.818,8.88,8.88,0,0,0-.686-1.622,11.858,11.858,0,0,0-.9-1.43,12.241,12.241,0,0,0-2.256-2.367,23.83,23.83,0,0,0-2.657-1.839c-.456-.276-.912-.541-1.371-.795l-1.392-.725c-.915-.473-1.8-.934-2.607-1.42-.407-.242-.784-.5-1.16-.751a10.812,10.812,0,0,1-1.052-.8,6.543,6.543,0,0,1-2.32-4.551l-.191-2.466c-.033-.418-.069-.838-.11-1.259s-.109-.829-.176-1.244a20.381,20.381,0,0,0-.548-2.464,11.083,11.083,0,0,0-.953-2.352,10.875,10.875,0,0,0-1.534-2.124,9.443,9.443,0,0,0-2.236-1.8,14.353,14.353,0,0,0-3.083-1.345q-.44-.136-.909-.255c-.317-.075-.648-.139-.987-.2q-1.018-.179-2.158-.274a8.4,8.4,0,0,1-1.773-.346,15.139,15.139,0,0,1-1.748-.685,18.9,18.9,0,0,1-3.438-2.14c-1.151-.827-2.294-1.756-3.409-2.729l-.417-.366-.428-.353-.85-.709-1.669-1.4c-.275-.229-.545-.459-.819-.677l-.828-.624c-.547-.406-1.083-.79-1.608-1.141s-1.034-.672-1.534-.942a11.57,11.57,0,0,0-1.477-.636c-1.9-.652-3.488-.442-4.649,1.271a2.95,2.95,0,0,0,.047,3.645,9.957,9.957,0,0,0,1.571,1.717c.627.6,1.338,1.223,2.1,1.872l1.157,1c.393.339.763.72,1.142,1.095a24.831,24.831,0,0,1,2.134,2.41,13.722,13.722,0,0,1,1.563,2.81,10.053,10.053,0,0,1,.479,1.531,9.272,9.272,0,0,1,.179,1.655,21.241,21.241,0,0,0,.376,3.793,13.09,13.09,0,0,0,.864,2.945,9.915,9.915,0,0,0,3.039,3.905c.312.241.647.455.975.67s.666.415,1.013.6a19.548,19.548,0,0,0,2.173.985c.756.283,1.494.562,2.229.826l2.169.768a5.7,5.7,0,0,1,1.182.584,4.852,4.852,0,0,1,.893.805,6.051,6.051,0,0,1,1.144,2.083,9.906,9.906,0,0,1,.452,2.567c.063.916.062,1.874.045,2.845,0,.482-.038.985-.061,1.482s-.049,1-.065,1.492-.023.988-.016,1.475.036.964.055,1.45a11.6,11.6,0,0,0,.456,2.779,10.542,10.542,0,0,0,.5,1.293,7.431,7.431,0,0,0,.707,1.234,8.7,8.7,0,0,0,1.5,1.61,13.243,13.243,0,0,0,1.853,1.341,19.455,19.455,0,0,0,4.483,1.869C550.851,368.276,554.277,368.44,556.645,367.539Z" transform="translate(-510.753 -308.634)"/><path class="f" d="M557.551,362.129a22.012,22.012,0,0,1,1.434-3.331,13.976,13.976,0,0,1,1.869-2.725l-.2-.2a14.378,14.378,0,0,0-1.891,2.741c-.292.537-.567,1.1-.816,1.691q-.186.44-.353.893c-.114.3-.227.613-.328.923a13.978,13.978,0,0,0-.726,3.741q-.019.459.006.909c.012.247.028.494.054.737a122.36,122.36,0,0,0-13.019-23.32,6.937,6.937,0,0,1-.645-1.381,9.525,9.525,0,0,1-.461-1.814,14.342,14.342,0,0,1-.059-3.471,17.6,17.6,0,0,1,1.839-6.643l-.244-.153a17.639,17.639,0,0,0-1.879,6.851,14.016,14.016,0,0,0,.138,3.813,9.982,9.982,0,0,0,.444,1.591,123.84,123.84,0,0,0-13.9-15.989c-.224-.239-.442-.48-.647-.725-.372-.434-.7-.893-1.031-1.32a20.268,20.268,0,0,1-1.655-2.6c-.23-.426-.435-.848-.624-1.252s-.373-.779-.531-1.144c-.315-.731-.556-1.391-.733-1.932l-.261.079c.18.548.423,1.216.742,1.956.16.37.338.758.537,1.159s.4.835.634,1.265a20.5,20.5,0,0,0,1.675,2.636c.074.1.149.193.223.291A120.861,120.861,0,0,0,512.776,313.9l-.153.224a120.828,120.828,0,0,1,16,13.055c.178.189.358.376.548.56l.011-.011a123.455,123.455,0,0,1,8.924,9.741,8.546,8.546,0,0,0-1.506-.849,8.836,8.836,0,0,0-1.768-.563,13.393,13.393,0,0,0-1.876-.272,14.928,14.928,0,0,0-3.691.183,12.949,12.949,0,0,0-3.115.959l.1.234a12.609,12.609,0,0,1,3.1-.936,15.378,15.378,0,0,1,3.5-.174,13.606,13.606,0,0,1,1.606.2,9.226,9.226,0,0,1,1.72.479,7.43,7.43,0,0,1,3.061,2.14l0,0q2.124,2.662,4.1,5.438.114.188.24.368l.016-.011a122.424,122.424,0,0,1,10.974,18.925c-.165-.2-.34-.39-.525-.573a8.1,8.1,0,0,0-.7-.585,12.053,12.053,0,0,0-3.312-1.722,14.328,14.328,0,0,0-3.642-.728,12.743,12.743,0,0,0-3.24.147l.034.252a12.5,12.5,0,0,1,3.219-.129,14.213,14.213,0,0,1,3.455.69,12.191,12.191,0,0,1,3.038,1.494,9.232,9.232,0,0,1,.736.567,6.957,6.957,0,0,1,1.687,2.272l.017-.008q.809,1.809,1.557,3.644c.049.152.1.3.162.452l.019-.008q.4,1,.788,2l.254-.1q-.457-1.194-.94-2.377A11.1,11.1,0,0,1,557.551,362.129Z" transform="translate(-512.091 -312.404)"/></g><g transform="translate(992.847 3450.956)"><g transform="translate(0 0)"><path class="g" d="M677.484,340.378c-1.578.7-2.988,1.311-2.416,2.312a3.2,3.2,0,0,0,2.186,1.264c1.475.243,3.729-.214,3.588-2.139a2.211,2.211,0,0,0-1-1.687A2.547,2.547,0,0,0,677.484,340.378Z" transform="translate(-661.953 -330.255)"/><path class="g" d="M669.381,434.773a36.3,36.3,0,0,1-5.54,1.231,34.206,34.206,0,0,1-3.622.338,24.617,24.617,0,0,1-3.673-.129l.844.272.814.27q.81.264,1.606.5c1.062.314,2.106.588,3.134.809s2.016.4,3,.509a19.641,19.641,0,0,0,2.9.125,8.919,8.919,0,0,0,4.545-1.226,2.253,2.253,0,0,0,1.013-2.954C673.739,433.2,671.724,434.027,669.381,434.773Z" transform="translate(-648.794 -397.44)"/><path class="g" d="M783.3,512.346a1.665,1.665,0,0,0-.975,2.4,2.008,2.008,0,0,0,2.819.817,1.723,1.723,0,0,0,.367-1.924A1.79,1.79,0,0,0,783.3,512.346Z" transform="translate(-738.635 -453.565)"/><path class="g" d="M814.988,492.492a1.625,1.625,0,0,0-.077,1.368,2.336,2.336,0,0,0,.887,1.034,15.128,15.128,0,0,0,6.641,2.114c2.492.176,4.707-.494,4.944-3a3.4,3.4,0,0,0-.371-2.1,2.624,2.624,0,0,0-1.336-1.046,6.324,6.324,0,0,0-3.459-.064,37.942,37.942,0,0,1-4.352.54C816.924,491.446,815.483,491.442,814.988,492.492Z" transform="translate(-762.017 -438.058)"/><path class="h" d="M717.683,354.254c.345.97,1.727,1.1,2.423,1.057a12.246,12.246,0,0,0,3.956-1.028,19.177,19.177,0,0,0,3.863-2.26c2.406-1.8,4.329-4.089,4.967-5.972a52.625,52.625,0,0,1,.624,6.609,47.516,47.516,0,0,1-.342,6.039A39.008,39.008,0,0,1,732,364.046c-.124.413-.25.817-.387,1.213s-.3.787-.453,1.167q-.468,1.14-.993,2.173t-1.1,1.955a17.711,17.711,0,0,1-1.211,1.735,18.752,18.752,0,0,1-2.69,2.8,12.391,12.391,0,0,1-5.828,2.838,11.954,11.954,0,0,1-6.872-.741,16.138,16.138,0,0,1-4.679-3.226c-.635-.611-1.278-1.221-1.854-1.794s-1.13-1.1-1.657-1.551a4.133,4.133,0,0,0-3.083-1.317,128.253,128.253,0,0,0-26.147-62.934,1.893,1.893,0,0,1,1.34-.4c1.89.165,4.178.288,6.782.489q1.922.173,4.054.432c1.416.178,2.919.379,4.44.654a2.727,2.727,0,0,1,1.8,2.159,11.38,11.38,0,0,1,.253,3.937,7.806,7.806,0,0,0,.592,4.337,1.853,1.853,0,0,0,1.816,1.188,1.782,1.782,0,0,0,1.469-1.412,5.617,5.617,0,0,0,.24-1.4,9.02,9.02,0,0,0-.082-1.654,16.362,16.362,0,0,0-.9-3.552,9.986,9.986,0,0,0-.744-1.592,8.571,8.571,0,0,0-.871-1.272c1.268.3,2.582.622,3.883,1.012s2.6.838,3.927,1.332a52.546,52.546,0,0,1,7.888,3.7c1.114.671,1.287,1.975.819,3.491a13.139,13.139,0,0,1-3.221,4.9,41.735,41.735,0,0,0-4.5,5.034,5.885,5.885,0,0,0-1.034,2.3,2.514,2.514,0,0,0,.545,2.02c.78.975,2.321,1.015,4.034.085a10.217,10.217,0,0,0,3.559-3.28,12.193,12.193,0,0,0,.636-1.046q.283-.536.518-1.1a15.537,15.537,0,0,0,.756-2.338,18.436,18.436,0,0,0,.41-2.424c.042-.4.07-.807.087-1.206s0-.784-.018-1.168a16.112,16.112,0,0,0-.691-4.114,51.653,51.653,0,0,1,5.143,3.79q1.219,1.06,2.4,2.218.589.579,1.166,1.184c.382.4.771.811,1.124,1.24a6.333,6.333,0,0,1,1.035,2.4,11.047,11.047,0,0,1,.283,1.818,8.883,8.883,0,0,1-.068,2.03,8.527,8.527,0,0,1-1.708,4.068,9.611,9.611,0,0,1-4.509,3.046c-2.324.813-5,1.4-7.087,2.515a6.132,6.132,0,0,0-3.673,5.556c-.024,1.883.8,2.96,2.019,3.355a4.775,4.775,0,0,0,4.08-.81,29.934,29.934,0,0,0,10.428-12.02,16.939,16.939,0,0,0,1.6-8.932c.442.609.887,1.228,1.3,1.87s.795,1.3,1.174,1.975.747,1.359,1.1,2.059.7,1.413.992,2.151a50.037,50.037,0,0,1,2.5,7.494c.764,2.864-2.132,4.485-7.8,6.556a27.507,27.507,0,0,0-4.106,1.792C718.582,351.756,717.212,352.934,717.683,354.254Zm-8.777,11.776a1.79,1.79,0,0,0-2.211-1.3,1.665,1.665,0,0,0-.975,2.4,2.008,2.008,0,0,0,2.819.817A1.723,1.723,0,0,0,708.907,366.03Zm8.971-6.794c-.942.106-2.384.1-2.879,1.152a1.625,1.625,0,0,0-.077,1.368,2.337,2.337,0,0,0,.887,1.034,15.129,15.129,0,0,0,6.641,2.114c2.492.176,4.707-.494,4.944-3a3.4,3.4,0,0,0-.371-2.1,2.624,2.624,0,0,0-1.336-1.046,6.324,6.324,0,0,0-3.458-.064A37.932,37.932,0,0,1,717.878,359.236Z" transform="translate(-662.028 -305.953)"/><path class="i" d="M642.314,307.386a128.253,128.253,0,0,1,26.147,62.934h0a4.472,4.472,0,0,0-2.732,1.965c-.424.53-.849,1.132-1.3,1.763s-.921,1.289-1.5,1.938a13.454,13.454,0,0,1-4.234,3.4,13.617,13.617,0,0,1-6.741,1.226,20.311,20.311,0,0,1-9.841-3.427,25.679,25.679,0,0,1-2.324-1.641q-.559-.444-1.093-.92c-.358-.317-.69-.646-1.054-.982a27.348,27.348,0,0,1-3.775-4.534,21.8,21.8,0,0,0,5.469.671,40.386,40.386,0,0,0,10.4-.99c4.46-1.042,7.411-2.832,8.822-4.624a3.552,3.552,0,0,0,.94-2.516,2.143,2.143,0,0,0-1.485-1.691c-1.458-.572-3.414.4-5.6,1.822-1.094.711-2.241,1.532-3.414,2.343-1.194.815-2.408,1.619-3.6,2.3a18.574,18.574,0,0,1-6.748,2.227,9.175,9.175,0,0,1-3.674-.249,4.753,4.753,0,0,1-2.685-2.028,13.986,13.986,0,0,1-.94-1.78q-.1-.226-.19-.453t-.2-.45q-.189-.451-.347-.905a16.33,16.33,0,0,1-.515-1.82c-.146-.6-.292-1.2-.389-1.784s-.174-1.168-.223-1.734-.122-1.1-.149-1.625-.044-1.022-.042-1.493.016-.913.023-1.31a8.3,8.3,0,0,0,1.136.792,9.148,9.148,0,0,0,1.351.622,16.066,16.066,0,0,0,3.246.786,31.465,31.465,0,0,0,7.387.146,25.769,25.769,0,0,0,6.49-1.348c1.709-.646,2.808-1.471,2.859-2.34.066-1.137-1-1.08-2.935-.553s-4.729,1.5-8.126,2.251a22.414,22.414,0,0,1-8.2.556,4.826,4.826,0,0,1-2.3-.939,2.1,2.1,0,0,1-.81-1.771q.047-.524.123-1.07c.049-.364.114-.738.159-1.1.1-.739.236-1.5.392-2.272q.117-.578.251-1.162.068-.293.137-.584l.124-.574c.168-.764.353-1.525.549-2.269q.23-.839.487-1.69c.176-.57.321-1.122.5-1.69.338-1.129.706-2.273,1.1-3.426.2-.58.38-1.146.569-1.717l.577-1.717,1.2-3.446a17.814,17.814,0,0,0,2.6,3.541,16.984,16.984,0,0,0,3.317,3.008c2.651,1.879,6.584,1.243,7.23-1.185a2.309,2.309,0,0,0-.261-1.779,3.217,3.217,0,0,0-.6-.76,6.524,6.524,0,0,0-.809-.661,14.235,14.235,0,0,0-3.508-1.67,26.549,26.549,0,0,1-4.4-1.717A6.309,6.309,0,0,1,637.4,326a1.7,1.7,0,0,1-.4-1.637c.215-.761.448-1.521.671-2.263s.436-1.463.659-2.182c.446-1.436.9-2.834,1.332-4.176a68,68,0,0,0,1.928-7.146A2.008,2.008,0,0,1,642.314,307.386ZM654.9,344.057c-.656-1.323-2.671-.491-5.013.255a36.3,36.3,0,0,1-5.54,1.231,34.213,34.213,0,0,1-3.622.338,24.614,24.614,0,0,1-3.673-.129l.844.272.814.27q.81.264,1.606.5c1.062.314,2.106.588,3.134.809s2.016.4,3,.509a19.642,19.642,0,0,0,2.9.125,8.918,8.918,0,0,0,4.545-1.226A2.252,2.252,0,0,0,654.9,344.057Zm-7.713-27.2a2.547,2.547,0,0,0-2.357.249c-1.578.7-2.988,1.311-2.416,2.312a3.2,3.2,0,0,0,2.186,1.264c1.475.243,3.729-.214,3.588-2.139A2.211,2.211,0,0,0,647.186,316.852Z" transform="translate(-629.298 -306.978)"/></g><path class="j" d="M698.744,337.325a5.875,5.875,0,0,1-.211,1.5,8.061,8.061,0,0,1-1.266,2.487,18.968,18.968,0,0,1-3.806,3.648,66.422,66.422,0,0,1-8.755,5.291c-2.988,1.577-6.07,3.063-9.058,4.688a39.175,39.175,0,0,0-4.348,2.683,10.528,10.528,0,0,0-1.895,1.732,4.767,4.767,0,0,0-.68,1.127l-.024.071c-.093-.557-.235-1.1-.355-1.654l-.374-1.651L667.6,355.6c-.121-.551-.284-1.092-.424-1.638l-.873-3.27c-.32-1.082-.661-2.158-.991-3.236a5.055,5.055,0,0,1,.693-2.038,8.6,8.6,0,0,1,1.386-1.782,21.972,21.972,0,0,1,3.626-2.815c2.595-1.661,5.347-3.067,8.046-4.576,1.351-.753,2.692-1.531,4-2.382a23.428,23.428,0,0,0,3.664-2.892,11.631,11.631,0,0,0,1.526-1.851,7.494,7.494,0,0,0,1.032-2.3,6.129,6.129,0,0,0,.1-2.718,9.166,9.166,0,0,0-.974-2.674,9.139,9.139,0,0,1,.952,2.675,6.062,6.062,0,0,1-.118,2.7,7.4,7.4,0,0,1-1.044,2.272,11.541,11.541,0,0,1-1.534,1.824,23.437,23.437,0,0,1-3.675,2.843c-1.3.834-2.651,1.6-4.007,2.339-2.71,1.483-5.474,2.867-8.1,4.517a22.291,22.291,0,0,0-3.7,2.827,8.961,8.961,0,0,0-1.453,1.838,5.75,5.75,0,0,0-.626,1.518c-.11-.35-.213-.7-.328-1.051l-.365-1.04-.729-2.079c-.463-1.394-1.027-2.751-1.561-4.119a4.68,4.68,0,0,1-.161-1.351,6.209,6.209,0,0,1,.093-.913,8.063,8.063,0,0,1,.2-.894,15.386,15.386,0,0,1,1.519-3.4c.628-1.085,1.343-2.149,2.049-3.181s1.45-2.053,2.189-3.079,1.489-2.055,2.217-3.108,1.448-2.135,2.075-3.245a15.718,15.718,0,0,0,1.567-3.589,5.414,5.414,0,0,0,.186-2.059,2.694,2.694,0,0,0-.324-1.033,3.051,3.051,0,0,0-.693-.834,3.048,3.048,0,0,1,.684.839,2.66,2.66,0,0,1,.312,1.029,5.345,5.345,0,0,1-.206,2.04,15.6,15.6,0,0,1-1.6,3.553c-.638,1.1-1.366,2.17-2.1,3.212s-1.5,2.062-2.251,3.081c-1.5,2.039-3,4.046-4.317,6.238a15.723,15.723,0,0,0-1.586,3.45,7.936,7.936,0,0,0-.32,1.884c0,.053,0,.106,0,.159-.1-.25-.2-.5-.3-.752l-.325-.741-.65-1.482-.65-1.482-.325-.741-.353-.728-1.412-2.912-.353-.728-.379-.715-.761-1.428a5.33,5.33,0,0,1-.3-1.866,20.687,20.687,0,0,1,.147-2.288c.181-1.525.475-3.059.742-4.619a37.772,37.772,0,0,0,.508-4.712,9.913,9.913,0,0,0-.175-2.422,4.745,4.745,0,0,0-.417-1.155,2.787,2.787,0,0,0-.817-.915,2.783,2.783,0,0,1,.8.925,4.708,4.708,0,0,1,.393,1.152,9.78,9.78,0,0,1,.132,2.407,38.491,38.491,0,0,1-.589,4.684c-.3,1.553-.618,3.082-.829,4.619a20.209,20.209,0,0,0-.188,2.325,8.054,8.054,0,0,0,.034.811,126.547,126.547,0,0,0-11.512-17.552l-.3.237a126.189,126.189,0,0,1,11.5,17.551,6.493,6.493,0,0,0-.7-.47,10.191,10.191,0,0,0-2.111-.891,33.238,33.238,0,0,0-4.389-1c-.723-.13-1.473-.229-2.212-.331s-1.473-.2-2.2-.32a19.177,19.177,0,0,1-2.132-.446,6.071,6.071,0,0,1-.994-.38,1.6,1.6,0,0,1-.779-.675,1.6,1.6,0,0,0,.768.692,6,6,0,0,0,.99.4,19.094,19.094,0,0,0,2.128.487c.724.129,1.456.245,2.193.36l1.109.175c.368.061.726.13,1.091.2a33.229,33.229,0,0,1,4.343,1.077c.356.121.71.252,1.056.4a8.184,8.184,0,0,1,.986.511,4.605,4.605,0,0,1,1.385,1.223,123.059,123.059,0,0,1,6.51,14.263,3.817,3.817,0,0,0-.557-.387,5.765,5.765,0,0,0-1.977-.62,18.232,18.232,0,0,0-4.061-.012c-2.713.251-5.388.728-8.056,1.051-1.333.165-2.664.294-3.982.345-.658.023-1.314.026-1.959-.006a16.572,16.572,0,0,1-1.93-.191,7.55,7.55,0,0,1-3.35-1.309,6.309,6.309,0,0,1-1.193-1.185,6.076,6.076,0,0,1-.8-1.448,6.089,6.089,0,0,0,.781,1.46,6.314,6.314,0,0,0,1.181,1.2,7.564,7.564,0,0,0,3.354,1.351,20.26,20.26,0,0,0,3.9.237c1.324-.037,2.662-.154,4-.305,2.674-.295,5.371-.747,8.057-.96a18.06,18.06,0,0,1,4,.056,5.51,5.51,0,0,1,1.869.6,2.985,2.985,0,0,1,.754.6,2.817,2.817,0,0,1,.354.514c.516,1.4.995,2.817,1.494,4.225.259.7.463,1.42.687,2.133l.66,2.141a2.573,2.573,0,0,0-.222-.148,4.5,4.5,0,0,0-1.123-.454,12.777,12.777,0,0,0-2.329-.368,40.677,40.677,0,0,0-4.662-.031c-3.113.137-6.225.444-9.3.721-1.54.137-3.078.279-4.606.392s-3.032.191-4.567.227a21.546,21.546,0,0,1-4.429-.29,4.949,4.949,0,0,1-1.857-.732,2.491,2.491,0,0,1-.634-.651,2.107,2.107,0,0,1-.283-.836,2.114,2.114,0,0,0,.273.841,2.5,2.5,0,0,0,.628.66,4.944,4.944,0,0,0,1.855.752,21.551,21.551,0,0,0,4.436.326c3.036-.034,6.094-.29,9.184-.54l4.644-.37c1.551-.113,3.117-.213,4.655-.26a40.439,40.439,0,0,1,4.635.078,12.544,12.544,0,0,1,2.273.382,4.218,4.218,0,0,1,1.042.43,1.639,1.639,0,0,1,.621.619c.391,1.357.736,2.727,1.107,4.09a2.388,2.388,0,0,0-.393-.273,3.434,3.434,0,0,0-1.195-.37,8.3,8.3,0,0,0-2.431.129,30.743,30.743,0,0,0-4.625,1.338c-3.013,1.089-5.951,2.332-8.921,3.48a82.44,82.44,0,0,1-9.054,3.05,22.937,22.937,0,0,1-4.7.771,6.9,6.9,0,0,1-2.251-.25,2.982,2.982,0,0,1-.9-.451,2.364,2.364,0,0,1-.6-.674,2.35,2.35,0,0,0,.6.68,2.968,2.968,0,0,0,.9.46,6.91,6.91,0,0,0,2.257.267,23.044,23.044,0,0,0,4.725-.739,83.5,83.5,0,0,0,9.095-2.981c2.982-1.123,5.932-2.338,8.943-3.392a30.379,30.379,0,0,1,4.592-1.277,8.029,8.029,0,0,1,2.34-.1,3.139,3.139,0,0,1,1.08.344,2.088,2.088,0,0,1,.739.691c.244.97.448,1.95.674,2.924l.331,1.463.164.732.137.737c.354,1.969.772,3.927,1.027,5.912a4.608,4.608,0,0,0-1.723-.413,7.091,7.091,0,0,0-2.095.263,18.269,18.269,0,0,0-3.821,1.654c-1.206.667-2.368,1.38-3.518,2.092l-1.719,1.064c-.584.352-1.169.7-1.757,1.036-1.177.675-2.366,1.316-3.595,1.881a20.5,20.5,0,0,1-3.834,1.361,9.329,9.329,0,0,1-4.071.14,6.209,6.209,0,0,1-1.808-.686,6.52,6.52,0,0,1-1.4-1.09,6.467,6.467,0,0,0,1.382,1.1,6.211,6.211,0,0,0,1.808.705,9.419,9.419,0,0,0,4.1-.106,20.7,20.7,0,0,0,3.87-1.333c1.239-.555,2.439-1.187,3.625-1.851.593-.332,1.182-.673,1.77-1.02l1.736-1.046c1.155-.7,2.321-1.4,3.524-2.045a17.9,17.9,0,0,1,3.77-1.583,6.779,6.779,0,0,1,2-.228,4.316,4.316,0,0,1,1.8.5c.133.937.284,1.873.4,2.812l.382-.048c-.178-1.342-.388-2.68-.58-4.021a3.711,3.711,0,0,1,.536-.812,3.536,3.536,0,0,1,.813-.673,5.006,5.006,0,0,1,2.034-.623,14.913,14.913,0,0,1,4.369.327c2.891.583,5.742,1.536,8.642,2.367,1.447.416,2.921.809,4.376,1.1a16.638,16.638,0,0,0,4.427.359,7.129,7.129,0,0,0,4.153-1.577,8.577,8.577,0,0,0,2.521-4.228,8.514,8.514,0,0,1-2.545,4.185,7.065,7.065,0,0,1-4.137,1.52,16.6,16.6,0,0,1-4.4-.4c-1.45-.3-2.919-.706-4.358-1.135-2.889-.856-5.729-1.836-8.632-2.448a15.211,15.211,0,0,0-4.452-.364,5.306,5.306,0,0,0-2.161.648,3.759,3.759,0,0,0-.888.73,3.416,3.416,0,0,0-.375.5c-.085-.67-.234-1.33-.35-2l-.371-1.992a2.158,2.158,0,0,1,.158-.855,4.413,4.413,0,0,1,.626-1.043,10.19,10.19,0,0,1,1.823-1.689,38.853,38.853,0,0,1,4.291-2.688c1.485-.82,2.991-1.608,4.5-2.391s3.029-1.562,4.518-2.364a66.125,66.125,0,0,0,8.724-5.376,19.111,19.111,0,0,0,3.789-3.7,8.142,8.142,0,0,0,1.252-2.513,5.921,5.921,0,0,0,.2-1.513,5.738,5.738,0,0,0-.259-1.577A5.731,5.731,0,0,1,698.744,337.325Z" transform="translate(-630.896 -306.681)"/></g><g transform="translate(915.985 3531.111) rotate(-48)"><path class="e" d="M45.081,36.027a32.5,32.5,0,0,0-.59-13.649,31.035,31.035,0,0,0-.977-2.958Q43.238,18.7,42.937,18q-.318-.682-.66-1.344c-.459-.879-.938-1.743-1.466-2.554s-1.1-1.577-1.681-2.322a24.586,24.586,0,0,0-1.853-2.1q-.482-.5-.977-.973c-.328-.319-.664-.626-1.012-.913a30.42,30.42,0,0,0-4.309-3.089A33.081,33.081,0,0,0,21.854.992,41.665,41.665,0,0,0,17.4.211C15.95.072,14.556.008,13.238,0,11.9.025,10.647.109,9.483.227,8.9.28,8.334.369,7.793.458S6.735.642,6.244.741a31.86,31.86,0,0,0-4.6,1.274C.579,2.395,0,2.659,0,2.659s.272.593.795,1.589,1.3,2.366,2.24,4.033q.356.618.75,1.271c.262.435.539.874.815,1.347.558.934,1.164,1.9,1.814,2.865.634,1,1.314,2.012,2.043,3C9.164,17.8,9.928,18.8,10.731,19.8A45.746,45.746,0,0,0,16.1,25.546a36.492,36.492,0,0,0,3.22,2.54c.292.192.582.392.873.593s.593.39.9.577c.611.378,1.267.717,1.913,1.081s1.341.687,2.062,1,1.439.638,2.214.923q.58.216,1.187.415c.4.143.8.282,1.214.414.827.269,1.708.5,2.609.738A88.054,88.054,0,0,0,45.081,36.027Z" transform="translate(0.066 0)"/><path class="d" d="M29.521,13.381a25.138,25.138,0,0,0,.778,2.875,15.168,15.168,0,0,0,.6,1.483,13.611,13.611,0,0,0,.751,1.44l-.968-.859-1-.824c-.668-.545-1.324-1.107-2-1.64l-2.054-1.577-.513-.394-.527-.376-1.054-.752a8.856,8.856,0,0,1-1.509-1.412,11.039,11.039,0,0,1-1.215-1.714,22.743,22.743,0,0,1-1.709-3.8c-.217-.625-.4-1.231-.555-1.789s-.294-1.046-.4-1.471-.18-.774-.231-1.02l-.077-.4-.4.039.075.395c.05.248.127.6.231,1.033.21.861.535,2.02.963,3.295a21.5,21.5,0,0,0,1.146,2.737,13.682,13.682,0,0,0,1.7,2.737L19.474,10c-.7-.452-1.419-.874-2.128-1.313l-1.067-.652-1.087-.617L13.012,6.2A11.176,11.176,0,0,1,9.228,2.469,17.92,17.92,0,0,1,8.216.745C8.1.52,8.011.332,7.949.205L7.852,0,7.489.145c.016.036.105.235.264.543s.378.743.666,1.227A16.238,16.238,0,0,0,9.471,3.482c.206.272.43.542.667.81s.482.547.748.805A103.033,103.033,0,0,0,.132.394L0,.753a98.3,98.3,0,0,1,13.041,5.9A12.227,12.227,0,0,0,9.084,6.6,12.068,12.068,0,0,0,7.2,7.055l.111.358.211-.067c.132-.04.321-.093.559-.152a11.324,11.324,0,0,1,1.9-.3,11.989,11.989,0,0,1,2.539.053,7.723,7.723,0,0,1,2.6.875,101.258,101.258,0,0,1,9.376,6.093,11.94,11.94,0,0,0-3.122-.571,16.063,16.063,0,0,0-2.884.168c-.634.091-1.229.21-1.764.338s-1.026.285-1.429.418-.726.253-.949.34l-.353.144.124.344.358-.144c.223-.086.543-.2.941-.334a18.081,18.081,0,0,1,3.15-.729,17.462,17.462,0,0,1,1.979-.171,11.942,11.942,0,0,1,2.057.134,10.3,10.3,0,0,1,2.015.5,7.333,7.333,0,0,1,1.788,1c1.381,1.025,2.682,2.152,4.014,3.239,1.28,1.148,2.6,2.258,3.821,3.464a10.7,10.7,0,0,0-1.483-.6,12.578,12.578,0,0,0-1.543-.355,16.132,16.132,0,0,0-2.866-.216,21.137,21.137,0,0,0-3.271.357c-.414.078-.748.154-.979.21l-.366.1.076.36.371-.095c.231-.056.561-.129.969-.205a20.314,20.314,0,0,1,3.228-.339,15.4,15.4,0,0,1,4.01.471,8.446,8.446,0,0,1,3.577,1.983c1.106,1.137,2.234,2.254,3.285,3.444l.8.88c.268.292.535.586.788.892l1.537,1.817a11.217,11.217,0,0,0-1.891-.971c-.311-.125-.617-.234-.909-.327s-.586-.16-.853-.221a12.462,12.462,0,0,0-1.913-.29l-.033.375.22.018c.136.013.331.035.572.07a12.78,12.78,0,0,1,1.891.418,8.944,8.944,0,0,1,4.409,2.787L45,34.057l.3-.231-1.382-1.759-.691-.88c-.229-.294-.478-.572-.717-.859a8.3,8.3,0,0,1-1.372-2.4,13.4,13.4,0,0,1-.737-2.474c-.159-.779-.236-1.484-.3-1.977-.027-.249-.044-.451-.053-.593l-.012-.228-.389,0a16.7,16.7,0,0,0,.214,1.977,14.507,14.507,0,0,0,1.1,3.874c-2.379-2.7-4.883-5.28-7.519-7.725a9.5,9.5,0,0,1-2.311-3.442,19.745,19.745,0,0,1-1.213-3.99A30.941,30.941,0,0,1,29.378,10c-.047-.438-.076-.8-.094-1.049s-.023-.4-.023-.409c-.131-.006-.264-.009-.4-.01l.026.4c.017.254.046.617.093,1.061A31.267,31.267,0,0,0,29.521,13.381Z" transform="translate(0 2.085)"/></g><g transform="matrix(0.875, -0.485, 0.485, 0.875, 934.139, 3497.949)"><path class="i" d="M414.384,460.944c-.911-2.388-1.8-4.433-2.6-6.43q-.3-.733-.607-1.421l-.3-.68-.287-.689q-.575-1.357-1.161-2.546c-.383-.809-.747-1.612-1.134-2.34-.192-.368-.387-.721-.583-1.066q-.277-.545-.562-1.054c-.377-.686-.783-1.3-1.173-1.922s-.777-1.222-1.188-1.776c-.425-.538-.805-1.114-1.227-1.627q-.313-.389-.638-.754l-.329-.36-.315-.37q-.633-.733-1.32-1.383l-.346-.321-.331-.332q-.333-.328-.679-.64a51.861,51.861,0,0,0-5.832-4.444c-.993-.679-1.986-1.336-3.025-1.941-.975-.641-1.976-1.242-2.978-1.81-.95-.593-1.9-1.154-2.825-1.679-.474-.258-.9-.526-1.324-.78l-1.247-.732c-1.653-.924-2.965-1.739-3.951-2.285s-1.562-.851-1.562-.851-.285.562-.7,1.62a26.264,26.264,0,0,0-1.368,4.614q-.152.746-.288,1.577c-.09.553-.182,1.138-.22,1.728-.1,1.189-.154,2.484-.14,3.864.063,1.352.193,2.792.41,4.3A40.022,40.022,0,0,0,375.666,443a31.17,31.17,0,0,0,4.78,9.2q.414.548.849,1.09c.146.18.291.362.443.538l.475.514q.962,1.024,2.013,2c.176.162.35.326.532.483l.564.455q.569.451,1.159.886a22.573,22.573,0,0,0,2.468,1.63q1.3.74,2.682,1.388a29.693,29.693,0,0,0,2.894,1.087q.741.24,1.5.449c.516.123,1.038.231,1.563.33a28.866,28.866,0,0,0,3.2.436A28,28,0,0,0,414.384,460.944Z" transform="translate(-374.142 -420.654)"/><path class="h" d="M400.084,444.792a10.418,10.418,0,0,0,.152,1.354,14.816,14.816,0,0,0,.32,1.454,13.093,13.093,0,0,0,.508,1.493,8.75,8.75,0,0,0,.768,1.4l-1-.815-.951-.867c-.629-.584-1.28-1.145-1.891-1.748l-1.806-1.835-.451-.459-.427-.482-.852-.965a7.119,7.119,0,0,1-.621-.816,5.038,5.038,0,0,1-.486-.9,10.1,10.1,0,0,1-.6-1.978,12.36,12.36,0,0,1-.079-4c.076-.62.181-1.2.3-1.719.132-.531.275-1,.4-1.394s.248-.706.334-.925l.145-.351-.34-.111-.144.346c-.088.22-.208.537-.341.933s-.278.873-.415,1.411a14.015,14.015,0,0,0-.317,1.747,15.819,15.819,0,0,0-.1,2.865,11.233,11.233,0,0,0,.709,3.074l-1.544-1.95c-.5-.658-.964-1.348-1.448-2.021l-.718-1.015c-.229-.345-.443-.7-.666-1.05-.439-.7-.887-1.4-1.319-2.108a7.921,7.921,0,0,1-.86-2.6,9.137,9.137,0,0,1-.021-2.522,13.289,13.289,0,0,1,.344-1.872c.061-.231.112-.412.159-.542l.077-.207-.348-.119c-.014.036-.092.233-.2.555a11.929,11.929,0,0,0-.3,1.288,13.164,13.164,0,0,0-.191,1.825c-.01.336-.011.688.013,1.044a10.172,10.172,0,0,0,.166,1.065,64.983,64.983,0,0,1-4.578-10.725l-.364.115A62.734,62.734,0,0,0,387,433.76a15,15,0,0,0-3.323-2.3,17.427,17.427,0,0,0-1.792-.887l-.127.371.211.092c.131.058.316.144.542.256l.793.409c.305.156.638.336.984.54a13.829,13.829,0,0,1,2.113,1.5,8.691,8.691,0,0,1,1.874,2.046c.481.8,1.036,1.559,1.576,2.324s1.069,1.538,1.667,2.26,1.151,1.477,1.756,2.192l1.86,2.1a13.693,13.693,0,0,0-2.955-1.311,25.338,25.338,0,0,0-2.871-.813c-.658-.146-1.3-.264-1.883-.359s-1.092-.193-1.535-.258-.806-.11-1.061-.138l-.4-.041.008.408.409.042c.252.029.612.074,1.048.138.86.141,2.084.317,3.387.608.652.146,1.325.319,1.993.529s1.372.42,2.025.7a11.179,11.179,0,0,1,1.867.967,8.237,8.237,0,0,1,1.64,1.265c1.182,1.261,2.5,2.38,3.766,3.554l2,1.64c.339.267.658.559,1.013.806l1.046.764a12.051,12.051,0,0,0-1.574-.425c-.526-.121-1.049-.224-1.574-.3a25.084,25.084,0,0,0-3-.219c-1.327-.057-2.557-.018-3.46.034-.451.026-.82.056-1.077.079l-.408.042.091.394.413-.042c.255-.023.62-.052,1.065-.076.893-.052,2.1-.078,3.423-.033a20.738,20.738,0,0,1,4.178.435,11.481,11.481,0,0,1,2.045.554,8.441,8.441,0,0,1,.944.426c.3.164.6.344.889.526,1.34.863,2.655,1.765,4.058,2.524l1.037.594c.344.2.69.4,1.051.569l2.139,1.068a12.477,12.477,0,0,0-2.145-.159c-.346,0-.682.016-1,.038s-.615.027-.895.049a16.42,16.42,0,0,0-1.99.266l.1.377.228-.043c.142-.025.345-.058.6-.092.506-.074,1.192-.128,1.993-.174a14.123,14.123,0,0,1,2.607.051q.339.041.677.106.169.032.337.071l.343.067a7.327,7.327,0,0,1,1.335.422l1.692.726.14-.355-2.044-.877-1.022-.439c-.342-.144-.666-.325-1-.486a7.735,7.735,0,0,1-2.171-1.655,11.636,11.636,0,0,1-1.41-2.1,10.073,10.073,0,0,1-.75-1.751c-.073-.232-.126-.421-.16-.552l-.053-.214-.357.1a10.735,10.735,0,0,0,.6,1.829,11.519,11.519,0,0,0,2.172,3.28,69.38,69.38,0,0,1-9.007-5.8,7.167,7.167,0,0,1-1.4-1.5,8.589,8.589,0,0,1-.985-1.805,14.208,14.208,0,0,1-.848-3.905,19.216,19.216,0,0,1,.1-3.206c.047-.406.1-.733.139-.962l.07-.369q-.182-.017-.354-.044l-.023.1c-.014.063-.034.156-.054.27-.041.23-.095.561-.144.972A19.24,19.24,0,0,0,400.084,444.792Z" transform="translate(-378.578 -420.553)"/></g></g><g class="k" transform="translate(0 34)"><g transform="translate(228.417 106.972)"><path class="l" d="M269.566,34.27c-2.139,13.633,9.382,33.806,12.717,59.042l1.649-.58s-2.386-11.416-4.823-21.407c0,0,3.769,12.093,6.768,20.943l21.055-7.06-8.021-34.453Z" transform="translate(-239.267 -6.981)"/><g transform="translate(3.454 66.491)"><path class="m" d="M276.434,95.359c-3.4,29.2-5.788,52.909,14.628,55.288S314.6,129.4,318,100.2s5.429-52.951-14.624-55.288S279.837,66.164,276.434,95.359Z" transform="translate(-274.171 -44.754)"/><g transform="translate(1.134 29.722)"><path class="n" d="M311.149,88.517l.572-.972c-29.076-17.226-35.373-34.658-35.44-34.842l-1.054.4C275.3,53.294,281.733,71.1,311.149,88.517Z" transform="translate(-270.796 -52.703)"/><path class="n" d="M274.668,71.532a54.094,54.094,0,0,0,23.818-17.544l-.931-.639a52.967,52.967,0,0,1-23.284,17.125Z" transform="translate(-253.991 -50.936)"/><path class="n" d="M308.816,95.016l.576-.972a86.05,86.05,0,0,1-30.684-31.607l-1.013.5A87.346,87.346,0,0,0,308.816,95.016Z" transform="translate(-277.695 -26.04)"/></g><path class="n" d="M276.434,95.359c3.4-29.2,6.888-52.782,26.941-50.445S321.4,71,318,100.2s-6.521,52.823-26.937,50.445S273.035,124.555,276.434,95.359Zm15.357,49.028c17.324,2.015,20.113-19.234,23.172-45.5s7.045-52.408-11.924-53.526c-19.219-1.129-20.285,23.16-23.344,49.421S274.468,142.368,291.791,144.388Z" transform="translate(-274.171 -44.754)"/><path class="o" d="M275.868,62.771c-1.9,10.01,1.2,18.386,13.225,19.934s16.927-6.454,16.74-16.636c-.194-10.832-1.428-18.685-12.519-20.012S277.939,51.841,275.868,62.771Z" transform="translate(-264.241 -41.623)"/><g transform="translate(12.968 6.739)"><path class="p" d="M278.25,55.89c.015.587,1.354,1.054,2.991,1.043s2.954-.494,2.935-1.081-1.354-1.058-2.991-1.047S278.235,55.3,278.25,55.89Z" transform="translate(-266.389 -23.96)"/><path class="p" d="M302.377,61.982c1.5,8.387-1.361,18-13.865,16.8-11.105-1.062-14.71-9.4-11.685-19.077,1.851-8.667,7.119-13.928,15.316-13.053C299.853,47.474,302.31,50.424,302.377,61.982Z" transform="translate(-275.802 -46.556)"/><g transform="translate(8.882 23.204)"><path class="q" d="M288.68,54.259,277.6,52.827s1.425,4.786,5.16,5.269S288.68,54.259,288.68,54.259Z" transform="translate(-277.363 -52.584)"/><path class="r" d="M278.621,53.545a5.8,5.8,0,0,0,3.993,2.834,4.427,4.427,0,0,0,2.116-.247A5.786,5.786,0,0,0,278.621,53.545Z" transform="translate(-277.212 -50.868)"/><path class="q" d="M280.817,52.829c.116.09.239.325.2.374s-.314-.03-.43-.12-.12-.194-.056-.265S280.7,52.736,280.817,52.829Z" transform="translate(-280.489 -52.762)"/><path class="q" d="M277.962,53.5c-.138.045-.415.022-.441-.037s.168-.239.307-.284a.2.2,0,0,1,.273.093C278.138,53.362,278.1,53.455,277.962,53.5Z" transform="translate(-266.473 -51.668)"/></g><g transform="translate(5.864 11.097)"><path class="s" d="M285.566,53.023a2.882,2.882,0,1,1-2.113-3.406A2.825,2.825,0,0,1,285.566,53.023Z" transform="translate(-279.902 -49.524)"/><path class="q" d="M279.91,51.6a3.743,3.743,0,0,1,2.984-1.559,3.029,3.029,0,0,1,2.651,2.015,2.888,2.888,0,0,0-5.635-.456Z" transform="translate(-279.828 -49.521)"/><path class="q" d="M284.836,52.665a2.512,2.512,0,1,1-1.844-2.973A2.458,2.458,0,0,1,284.836,52.665Z" transform="translate(-279.149 -49.286)"/></g><g transform="translate(18.566 12.069)"><path class="s" d="M282.169,53.283a2.882,2.882,0,1,1-2.113-3.406A2.83,2.83,0,0,1,282.169,53.283Z" transform="translate(-276.505 -49.784)"/><path class="q" d="M276.513,51.859A3.743,3.743,0,0,1,279.5,50.3a3.029,3.029,0,0,1,2.651,2.015,2.888,2.888,0,0,0-5.635-.456Z" transform="translate(-276.431 -49.781)"/><path class="q" d="M281.439,52.924a2.512,2.512,0,1,1-1.84-2.973A2.458,2.458,0,0,1,281.439,52.924Z" transform="translate(-275.752 -49.545)"/></g><path class="t" d="M278.061,56.133s3.481.557,3.582-1.529-2.715-1.589-2.715-1.589-.834-.7.142-2.244c0,0-.011,1.054.423,1.331s2.883-.082,3,2.472S278.405,57.116,278.061,56.133Z" transform="translate(-264.005 -35.012)"/><path class="u" d="M280.684,50.658c-.161.542-1.286.441-2.494.079s-2.053-.841-1.892-1.383,1.264-.942,2.475-.58S280.844,50.112,280.684,50.658Z" transform="translate(-255.541 -40.866)"/><path class="u" d="M279.961,49.985c.09.561,1.473.6,3.014.393s2.651-.583,2.561-1.148-1.354-1.1-2.894-.89S279.867,49.42,279.961,49.985Z" transform="translate(-274.131 -41.798)"/><path class="t" d="M292.575,79.725c1.754.067,3.365-.277,3.848-1.219a8.249,8.249,0,0,1-7.445-.714c-13.7-5.115-8.264-18.057-8.264-18.057,1.141-11.244,9.453-12.945,12.126-13.177-7.662-.123-12.007,5.149-13.715,13.147-2.845,9.1.213,17.3,9.946,18.842A5.107,5.107,0,0,0,292.575,79.725Z" transform="translate(-278.1 -46.556)"/><path class="v" d="M280.734,52.6c-.355,1.155.565,2.464,2.06,2.924s2.988-.108,3.343-1.264-.568-2.468-2.06-2.928S281.089,51.45,280.734,52.6Z" transform="translate(-277.428 -33.892)"/><path class="v" d="M276,53.859c.086,1.2,1.421,2.094,2.977,1.982s2.748-1.182,2.662-2.389-1.421-2.094-2.977-1.982S275.915,52.652,276,53.859Z" transform="translate(-255.431 -33.123)"/></g></g><path class="t" d="M281.4,304.239c3.863-11.965-4.035-97.222-7.179-118.173-2.2-14.68-6.63-100.3-6.63-100.3l27.891-5.871L290.1,189.981s8.432,15.3,9.554,33.656c1.612,26.335-13.82,75.569-13.67,80.647Z" transform="translate(-225.72 117.986)"/><path class="w" d="M270.684,106.709l10.773.142s8.1,25.815.942,18.655c-4.468-4.472-7.766-3.283-9.61-1.761-.535-4.592-1.021-8.413-1.432-11.135C271.151,111.23,270.923,109.214,270.684,106.709Z" transform="translate(-222.852 191.442)"/><path class="p" d="M292.95,313.885c5.268-12.65-15.966-115.6-16.082-117.866-.28-5.639-5.837-43.92-7.516-69.8l-4.711-1.41-1.791-30.654,39.288-17.679c6.072,8.978,7.71,3.836,9.95,24.888,2.333,21.953-20.038,91.984-20.038,94.919s12.451,22.988,13.379,37.62c.995,15.63-7.662,76.085-7.553,79.749Z" transform="translate(-220.462 108.621)"/><path class="t" d="M267.07,108.592l16.579-1.312a38.2,38.2,0,0,0-1.122,4.614c0,1.17,1.989,5.085,4.427,10.272a26.411,26.411,0,0,0-9.307-1.8,17.605,17.605,0,0,0-8.14,2.864c-1.294-6.79-2.139-11.15-2.161-11.6C267.317,111,267.216,109.961,267.07,108.592Z" transform="translate(-210.941 193.006)"/><path class="x" d="M264.79,89.035s-5.276,34.292-5.467,103.437c0,0,33,7.95,72.57-2.445-3.78-83.746-16.28-100.147-21.968-112.789C289.954,85.692,279.144,93.156,264.79,89.035Z" transform="translate(-226.912 110.716)"/><path class="y" d="M287.363,190.317c-3.044-97.989-15.518-106.81-20.835-113.185-3.414,1.443-7.205,8.563-7.205,8.563s10.69,53.762,11.072,108.1A92.37,92.37,0,0,0,287.363,190.317Z" transform="translate(-182.382 110.426)"/><g transform="translate(36.302 253.487)"><path class="y" d="M276.731,145.247c1.054.183,2.307.381,3.735.587-1.264-18.681-2.292-51.07-2.292-51.07C276.4,115.378,276.664,140.6,276.731,145.247Z" transform="translate(-276.677 -94.764)"/><path class="y" d="M272.269,146.079q2.109.129,4.4.217l-4.031-51.174C272.288,108.728,272.266,137,272.269,146.079Z" transform="translate(-256.402 -93.786)"/><path class="y" d="M267.859,146.779c1.668-.086,3.369-.194,5.111-.337C271.139,130.611,266.9,94.9,266.9,94.9,266.876,107.6,267.65,138.635,267.859,146.779Z" transform="translate(-232.616 -94.386)"/></g><path class="y" d="M262.812,96.776c.651-6.383,1.17-10.2,1.354-11.483l1.4-.183c7.949,1.914,14.927.3,23.138-3.018l27.128-3.305c.744,1.593,1.582,3.548,2.468,5.885C314.229,88.677,295.268,102.976,262.812,96.776Z" transform="translate(-226.363 114.959)"/><path class="z" d="M262.5,44.15l8.338,32.071c27.61,13.491,31.678,9.258,35.978,7.658,16.18-5.093,20.524-47.506.367-51.126,0,0-1.286-5.743-10.088-5.781C282.569,26.916,270.787,34.047,262.5,44.15Z" transform="translate(-227.603 -26.972)"/><path class="aa" d="M272.663,107.855s-9.434-4.9-9.714-13.379c-.15-9.625,16.393-18.651,29.39-43.733,1.7-.168,22.33-1.582,22.33-1.582s9.827,17.38,6.125,37.119c-3.392,18.09-11.442,28.579-11.9,35.9-.479,7.606,8.5,25.15,15.331,38.491-5.568,9-32.187,19.089-55.433,12.81C268.789,173.478,270.3,149.36,272.663,107.855Z" transform="translate(-232.797 33.808)"/><path class="l" d="M290.359,62.882l3.029-16.527-14.4-14.788C271.065,41,271.817,53.855,290.359,62.882Z" transform="translate(-244.091 -14.388)"/><path class="ab" d="M289.193,77.442c-4.079-9.2-7.5-23.347-4.958-32.486l-4.33-6.091L265.487,58.241s4.771,11.689,1.215,21.231C274.592,73.7,282.1,72.491,289.193,77.442Z" transform="translate(-207.261 5.605)"/><path class="ac" d="M269.346,53.981s.673,2.348,15.462-5.545C284.808,48.436,292.679,36.946,269.346,53.981Z" transform="translate(-218.583 21.442)"/><path class="ab" d="M272.632,35.352s-4.861,2.393-4.6,9.2c.194,5.007,3.451,9.871,5.153,15.117,1.589,4.9.112,7.164-4.177,11.075,0,0,1.1,2.341,4.835,3.212a16.819,16.819,0,0,1,4.566,6.2c1.544,3.8,2.808,8.151,4.143,8.507,4.124,1.088,19.885-9.041,21.022-16.168a65.663,65.663,0,0,0,.654-9.236S293.672,19.79,272.632,35.352Z" transform="translate(-231.793 -13.235)"/><path class="l" d="M285.1,44.947a14,14,0,0,0-2.961,5.227s-2.049,1.032-3.679-1.383c-.95-1.41-4.412-8.451-10.395-12.014L284.555,35.2Z" transform="translate(-212.789 -4.425)"/><path class="l" d="M273.625,42.22c1.111-.456,4.947-4.315,8.136-3.866,3.926.557,5.19,2.8,5.526,2.67s-1.63-3.014-5.47-4.008c-4.094-1.062-9.236,3.541-9.236,3.541Z" transform="translate(-231.922 0.104)"/><path class="z" d="M270.436,32.784s-17.193,25.3,37.8,20.756C308.235,53.54,313.9,23.9,270.436,32.784Z" transform="translate(-235.535 -15.606)"/><path class="q" d="M277.221,44.505l-2.315,2.075c-.093-.239-.183-.479-.28-.718-.116-.288-.258-.557-.389-.83Z" transform="translate(-228.006 21.054)"/><g transform="translate(42.739 43.836)"><path class="q" d="M277.474,45.589l-.138.494c1.477.4,6.3-1.761,6.839-4.7L284.66,41c-2.438-2.378-9.1-3.664-11.864-.108l2.143.651Z" transform="translate(-272.796 -38.695)"/><path class="ad" d="M274.128,39.235c2.277-.733,7,.146,7.594,1.518-.692,2.6-4.872,4.577-6.3,4.083C273.87,44.305,271.686,39.83,274.128,39.235Z" transform="translate(-270.74 -37.943)"/><path class="q" d="M274.789,39.277c1.1-.482,2.767.393,3.732,1.956a3.707,3.707,0,0,1,.6,2.423,3.064,3.064,0,0,1-3.07.7,4.033,4.033,0,0,1-1.739-1.9,4.755,4.755,0,0,1-.262-.591l-.03-.064C273.7,40.661,273.966,39.64,274.789,39.277Z" transform="translate(-271.375 -37.465)"/></g><path class="ae" d="M273.559,44.321c1.518-.722,6.768,1.211,9.318-.666,0,0-2.4,6.17-6.039,6.936-1.671.355-2.61-1.978,4.453-5.71a17.4,17.4,0,0,1-6.23,1.331C273.4,46.183,272.418,44.867,273.559,44.321Z" transform="translate(-229.283 18.726)"/><path class="ac" d="M272.793,43.429c.3-.512,2.759,2.057,2.55,2.206C275.238,45.71,272.464,43.99,272.793,43.429Z" transform="translate(-220.639 17.923)"/><path class="ad" d="M274.192,45.254A17.1,17.1,0,0,0,280.216,44c-.228.942-3.769,2.943-5.665,2.834l-1.006-1.671A2.939,2.939,0,0,0,274.192,45.254Z" transform="translate(-228.413 19.685)"/><path class="af" d="M295.828,73.44a23.165,23.165,0,0,1-12.8,1.223c-1.585-.8-9.5-5.467-9.711-13.383C278.037,74,295.828,73.44,295.828,73.44Z" transform="translate(-243.161 67.004)"/><path class="l" d="M307.806,70.429s-1.492-14.052-5.945-11.505l-11.423-6.94s-21.594,1.29-27.969-7.77c0,0,10.8,6.237,28.332,2.483l-7.789-4.386s14.429,4.057,25.426,1.761A14.752,14.752,0,0,0,320.5,31.882a41.383,41.383,0,0,1-1.26,24.667C314.342,69.494,307.806,70.429,307.806,70.429Z" transform="translate(-228.588 -13.522)"/><path class="ag" d="M307.472,49.161c-21.773.3-28.968,33.021-41.969,29.345,0,0,16.045-18.913,19.6-27.756Z" transform="translate(-225.599 33.808)"/><path class="ab" d="M273.137,53.924c.221-.449.422-.875.606-1.29.116-.239.232-.479.348-.7.576-.322,14.9-8.021,21.766-.176-9.131.322-16.561,6.794-22.458,13.723-2.572,1.043-5.268,1.627-7.912.707C268.467,61.877,271.649,57.323,273.137,53.924Z" transform="translate(-213.924 31.292)"/><path class="l" d="M280.118,30.639S294.23,56.3,282.676,90.862l-18.438,6.252s4.895-39.056-2.8-36.674l16.894-10.331S284.665,44.979,280.118,30.639Z" transform="translate(-190.146 -16.927)"/><g transform="translate(68.298 40.427)"><path class="ab" d="M276.327,41.793a4.974,4.974,0,1,1-5.844-3.915A4.977,4.977,0,0,1,276.327,41.793Z" transform="translate(-266.473 -37.784)"/><path class="ab" d="M268.5,38.421a2.707,2.707,0,0,0-1.44.849,2.128,2.128,0,0,1,.434-.183,2.333,2.333,0,0,1,.9,4.577,2.2,2.2,0,0,1-.471,0,2.719,2.719,0,0,0,1.656.236,2.79,2.79,0,0,0-1.084-5.474Z" transform="translate(-264.064 -36.184)"/></g><path class="af" d="M265.289,110.762c1.062,1.126,2.128,2.277,3.2,3.485,3.5.157,8.664-11.39,14.373-24.5l-1.182-.565c9.288-22.069,16.7-39.377,24.873-36.554,10.361,3.582,8.454,24.529-2.262,48.856-7.056,13.637-24.817,35.877-40.241,30.658C264.418,125.842,264.833,118.7,265.289,110.762Z" transform="translate(-226.088 42.489)"/><g transform="translate(45.487 418.822)"><path class="ah" d="M276.56,157.788s-6.3,2.681-6.3,3.967,8,1.428,13.068.916c2.333-.232,1.858-7.807,3.612-12s3.855-4.2-1.511-11.547l-3.272,14.934Z" transform="translate(-270.26 -138.595)"/><path class="t" d="M275.123,138.981s-1.234,5.728-2.1,9.8c-1,4.689-1.458,7.291-2.509,9.393,0,0,3.264,1.4,5.6.467s1.982-6.532,5.482-12.833c1.256-2.258-2.445-6.652-2.445-6.652Z" transform="translate(-264.216 -138.981)"/><path class="ah" d="M279.21,139.122a23.573,23.573,0,0,1,.049,5.6c-.355,2.6-1.339,16.093-8.918,13.065,0,0,2.681,5.022,5.6,3.388s3.268-7.931,4.435-11.2S284.692,146.122,279.21,139.122Z" transform="translate(-264.04 -138.595)"/><path class="ah" d="M273.277,141.208a87.475,87.475,0,0,0-1.047,15.749h-1.054s0-6.82-.871-10.5Z" transform="translate(-254.842 -132.881)"/></g><g transform="translate(62.414 418.822)"><path class="ah" d="M272.033,157.788s-6.3,2.681-6.3,3.967,8,1.428,13.068.916c2.333-.232,1.862-7.807,3.612-12s3.855-4.2-1.511-11.547l-3.272,14.934Z" transform="translate(-265.733 -138.595)"/><path class="p" d="M270.6,138.981s-1.234,5.728-2.1,9.8c-1,4.689-1.458,7.291-2.509,9.393,0,0,3.264,1.4,5.6.467s1.982-6.532,5.485-12.833c1.253-2.258-2.449-6.652-2.449-6.652Z" transform="translate(-259.688 -138.981)"/><path class="ah" d="M274.683,139.122a23.577,23.577,0,0,1,.049,5.6c-.355,2.6-1.339,16.093-8.918,13.065,0,0,2.681,5.022,5.6,3.388s3.268-7.931,4.435-11.2S280.165,146.122,274.683,139.122Z" transform="translate(-259.513 -138.595)"/><path class="ah" d="M268.75,141.208a87.479,87.479,0,0,0-1.047,15.749h-1.054s0-6.82-.871-10.5Z" transform="translate(-250.315 -132.881)"/></g><path class="af" d="M262.948,110.031c0-7.516,16.52-26.286,17.159-56.245a53.533,53.533,0,0,1,.206,19.825c-3.392,18.09-11.442,28.579-11.9,35.9-.434,6.884,7.512,21.908,13.435,34.591h0c.617,1.327,1.249,2.636,1.9,3.9-.7,1.122-3.848,5.478-12.8,9.183C268.635,142.943,262.948,120.426,262.948,110.031Z" transform="translate(-192.315 46.477)"/><g transform="translate(2.85 87.949)"><g transform="translate(0 5.304)"><path class="p" d="M291.925,71.118c.026.2-1.025-.606-1.914-10.571-.221-2.464,1.555-8.409.92-8.623-1.069-.355-6.076,6.506-6.218,11.449A23.08,23.08,0,0,0,287.8,74.8C291.555,81.786,291.925,71.118,291.925,71.118Z" transform="translate(-284.706 -51.911)"/><path class="p" d="M286.38,69.931a33.319,33.319,0,0,0,1.829-7.987c.168-3.466-.378-9.311-1.256-8.753-1.776,1.133-.314,7.265-2.438,9.221C283.082,63.732,286.38,69.931,286.38,69.931Z" transform="translate(-278.955 -48.508)"/></g><path class="ab" d="M339.854,51.478c-10.739-4.8-32.408,60.294-40.7,59.917-2.76.1-7.841-5.639-13.566-11.73C278.02,91.614,269.479,79.458,268.709,73l-4.315,3.2s4.091,18.748,12.339,34.154c5.448,10.174,13.27,18.887,20.913,19.788C318.971,132.655,358.348,59.749,339.854,51.478Z" transform="translate(-261.49 -48.49)"/><path class="ag" d="M277.662,105.964c5.526,10.189,13.383,18.894,20.917,19.7,18.722,2.008,49.533-55.807,43.214-74.013,13.379,12.728-23.673,79.731-44.137,77.323-7.643-.9-15.465-9.613-20.913-19.788C268.493,93.781,264.4,75.033,264.4,75.033S271.039,93.759,277.662,105.964Z" transform="translate(-261.498 -47.318)"/><path class="ag" d="M272.648,59.806l19.335,6.667A137.795,137.795,0,0,1,283.8,80.962a27.181,27.181,0,0,0-7.628-6.921,21.73,21.73,0,0,0-9.5-2.292C268.583,68.025,270.595,63.945,272.648,59.806Z" transform="translate(-217.305 -24.983)"/><path class="aa" d="M263.932,87.814c9.288-22.069,17.754-41.46,24.873-36.554,11.962,8.252,7.89,22.779-2.827,47.106Z" transform="translate(-211.192 -50.493)"/></g><g transform="translate(0 127.435)"><path class="ab" d="M286.116,66.118a45.7,45.7,0,0,1,7.351,5.183c2.389,2.352,4.651,5.452,3.2,5.841-.864.232-4.853-4.337-5.56-3.956s1.619,4.016,3.111,5.65a28.24,28.24,0,0,0,3.4,3.305c2.03,1.6,4.244,2.961,3.653,3.593-.527.568-2.917-.363-4.88-1.623-1.847-1.185-3.283-2.7-3.444-2.524s.991,1.675,2.412,3.07c1.72,1.69,4.386,2.816,3.863,3.272-.471.411-2.737.045-5.093-1.649-2.06-1.484-3.687-3.291-3.874-3.163s.52,1.275,1.641,2.457c1.2,1.268,2.827,2.561,2.221,2.842-.441.206-2.042-.411-3.38-1.477a30.468,30.468,0,0,1-5.695-6.517c-1.978-3.055-2.954-13.259-2.954-13.259Z" transform="translate(-281.495 -47.179)"/><path class="ab" d="M290.708,79.992s-1.694-5.938.284-18.939a24.609,24.609,0,0,0-4.315,19.982S289.015,83.1,290.708,79.992Z" transform="translate(-286.087 -61.053)"/><path class="ag" d="M288.928,61.053c-.123.815-.235,1.6-.329,2.363a24.562,24.562,0,0,0-2.853,17.806s.972,10.208,2.95,13.263A30.459,30.459,0,0,0,294.4,101a8.415,8.415,0,0,0,2.251,1.29h0c-.441.206-2.042-.411-3.38-1.477a30.489,30.489,0,0,1-5.7-6.517c-1.974-3.055-2.95-13.259-2.95-13.259A24.609,24.609,0,0,1,288.928,61.053Z" transform="translate(-284.023 -61.053)"/></g></g></g></g></svg>