<svg xmlns="http://www.w3.org/2000/svg" width="24.535" height="24.535" viewBox="0 0 24.535 24.535"><defs><style>.a{fill:#fff;}</style></defs><g transform="translate(-48 -1039)"><g transform="translate(0 414)"><g transform="translate(48 625)"><path class="a" d="M452.479,152.958a.479.479,0,1,0-.339-.14A.483.483,0,0,0,452.479,152.958Z" transform="translate(-430.34 -144.716)"/><path class="a" d="M186.837,443.667h-.007a.479.479,0,1,0,0,.958h.007a.479.479,0,1,0,0-.958Z" transform="translate(-177.421 -422.406)"/><path class="a" d="M24.535,19.244V3.354A1.439,1.439,0,0,0,23.1,1.917H21.456V1.629a1.629,1.629,0,1,0-3.259,0v.288H13.891V1.629a1.629,1.629,0,1,0-3.259,0v.288H6.325V1.629a1.629,1.629,0,0,0-3.259,0v.288H1.438A1.439,1.439,0,0,0,0,3.354V23.1a1.439,1.439,0,0,0,1.438,1.438H19.244a.478.478,0,0,0,.339-.14h0l4.812-4.812h0A.478.478,0,0,0,24.535,19.244ZM19.156,1.629a.671.671,0,1,1,1.342,0V3.977a.671.671,0,0,1-1.342,0Zm-7.565,0a.671.671,0,1,1,1.342,0V3.977a.671.671,0,0,1-1.342,0Zm-7.565,0a.671.671,0,1,1,1.342,0V3.977a.671.671,0,0,1-1.342,0ZM.958,23.1v-.879H7.5a.479.479,0,1,0,0-.958H.958V8.242H20.222a.479.479,0,1,0,0-.958H.958V3.354a.48.48,0,0,1,.479-.479H3.067v1.1a1.629,1.629,0,0,0,3.259,0v-1.1h4.307v1.1a1.629,1.629,0,0,0,3.259,0v-1.1H18.2v1.1a1.629,1.629,0,0,0,3.259,0v-1.1H23.1a.48.48,0,0,1,.479.479V18.765H20.2A1.439,1.439,0,0,0,18.765,20.2v3.374H1.438A.48.48,0,0,1,.958,23.1Zm18.765-.2V20.2a.48.48,0,0,1,.479-.479h2.7Z"/></g></g><g transform="translate(116.317 135.44)"><path class="a" d="M193.156,248.5a2.639,2.639,0,1,0,2.639,2.639A2.642,2.642,0,0,0,193.156,248.5Zm0,4.674a2.034,2.034,0,1,1,2.034-2.034A2.037,2.037,0,0,1,193.156,253.174Z" transform="translate(-249.163 667.405)"/><path class="a" d="M248.8,184.174a.3.3,0,0,0,.3-.3v-1.335a.3.3,0,1,0-.6,0v1.335A.3.3,0,0,0,248.8,184.174Z" transform="translate(-304.81 731)"/><path class="a" d="M248.8,397.6a.3.3,0,0,0-.3.3v1.335a.3.3,0,1,0,.6,0V397.9A.3.3,0,0,0,248.8,397.6Z" transform="translate(-304.81 524.313)"/><path class="a" d="M313.446,371a.3.3,0,1,0-.427.427l.944.944a.3.3,0,0,0,.428-.427Z" transform="translate(-366.643 549.926)"/><path class="a" d="M341.254,306.483h-1.335a.3.3,0,0,0,0,.6h1.335a.3.3,0,0,0,0-.6Z" transform="translate(-392.254 611.758)"/><path class="a" d="M161.675,220.085a.3.3,0,0,0,.427-.427l-.944-.944a.3.3,0,0,0-.427.427Z" transform="translate(-220.493 696.075)"/><path class="a" d="M161.675,371l-.944.944a.3.3,0,1,0,.427.427l.944-.944a.3.3,0,1,0-.427-.427Z" transform="translate(-220.493 549.925)"/><path class="a" d="M313.232,220.174a.3.3,0,0,0,.214-.089l.944-.944a.3.3,0,0,0-.427-.427l-.944.944a.3.3,0,0,0,.214.516Z" transform="translate(-366.643 696.075)"/><path class="a" d="M126.19,306.785a.3.3,0,0,0-.3-.3h-1.335a.3.3,0,0,0,0,.6h1.335A.3.3,0,0,0,126.19,306.785Z" transform="translate(-185.567 611.758)"/></g></g></svg>