<svg xmlns="http://www.w3.org/2000/svg" width="6.76" height="9.614" viewBox="0 0 6.76 9.614"><defs><style>.a{fill:#fff;}</style></defs><g transform="translate(-76)"><g transform="translate(76)"><path class="a" d="M79.38,0A3.38,3.38,0,0,0,76.5,5.157L79.187,9.48a.282.282,0,0,0,.239.133h0a.282.282,0,0,0,.239-.137l2.614-4.365A3.38,3.38,0,0,0,79.38,0ZM81.8,4.822,79.422,8.791,76.983,4.86A2.818,2.818,0,1,1,81.8,4.822Z" transform="translate(-76 0)"/></g><g transform="translate(77.69 1.69)"><path class="a" d="M167.69,90a1.69,1.69,0,1,0,1.69,1.69A1.692,1.692,0,0,0,167.69,90Zm0,2.82a1.13,1.13,0,1,1,1.128-1.13A1.131,1.131,0,0,1,167.69,92.82Z" transform="translate(-166 -90)"/></g></g></svg>