<svg xmlns="http://www.w3.org/2000/svg" width="9.174" height="9.174" viewBox="0 0 9.174 9.174"><defs><style>.a{fill:#fff;}</style></defs><path class="a" d="M163.684,6.46a1.686,1.686,0,0,0,1.684-1.684V1.684a1.684,1.684,0,1,0-3.368,0V4.776A1.686,1.686,0,0,0,163.684,6.46Zm0-6.1a1.327,1.327,0,0,1,1.326,1.326V3.165h-2.652V1.684A1.327,1.327,0,0,1,163.684.358Zm-1.326,3.165h2.652V4.776a1.326,1.326,0,1,1-2.652,0Zm0,0" transform="translate(-159.097)"/><path class="a" d="M221.847,111.671h.872a.179.179,0,0,0,0-.358h-.872a.179.179,0,0,0,0,.358Zm0,0" transform="translate(-217.696 -109.319)"/><path class="a" d="M122.736,256.531a.179.179,0,0,0-.179.179,2.115,2.115,0,1,1-4.23,0,.179.179,0,0,0-.358,0,2.477,2.477,0,0,0,1.945,2.416v.906H119.9a.9.9,0,0,0-.9.9.179.179,0,0,0,.179.179h2.52a.179.179,0,0,0,.179-.179.9.9,0,0,0-.9-.9h-.014v-.906a2.477,2.477,0,0,0,1.945-2.416.179.179,0,0,0-.179-.179Zm-1.244,4.219h-2.1a.539.539,0,0,1,.508-.359h1.085A.54.54,0,0,1,121.493,260.75Zm-.88-.718h-.34v-.855c.056,0,.113.006.17.006s.114,0,.17-.006Zm0,0" transform="translate(-115.855 -251.935)"/><path class="a" d="M40.179,93.406a.179.179,0,0,0-.179.179v1.749a.179.179,0,1,0,.358,0V93.585A.179.179,0,0,0,40.179,93.406Zm0,0" transform="translate(-39.283 -91.733)"/><path class="a" d="M120.179,119.606a.179.179,0,0,0,.179-.179v-.853a.179.179,0,1,0-.358,0v.853A.179.179,0,0,0,120.179,119.606Zm0,0" transform="translate(-117.85 -116.273)"/><path class="a" d="M.179,54A.179.179,0,0,0,0,54.179v2.98a.179.179,0,0,0,.358,0v-2.98A.179.179,0,0,0,.179,54Zm0,0" transform="translate(0 -53.032)"/><path class="a" d="M80.179,83.316A.179.179,0,0,0,80,83.5v2.422a.179.179,0,1,0,.358,0V83.5A.179.179,0,0,0,80.179,83.316Zm0,0" transform="translate(-78.567 -81.824)"/><path class="a" d="M452.179,93.406a.179.179,0,0,0-.179.179v1.749a.179.179,0,1,0,.358,0V93.585A.179.179,0,0,0,452.179,93.406Zm0,0" transform="translate(-443.901 -91.733)"/><path class="a" d="M372.179,119.606a.179.179,0,0,0,.179-.179v-.853a.179.179,0,1,0-.358,0v.853A.179.179,0,0,0,372.179,119.606Zm0,0" transform="translate(-365.335 -116.273)"/><path class="a" d="M492.179,54a.179.179,0,0,0-.179.179v2.98a.179.179,0,1,0,.358,0v-2.98A.179.179,0,0,0,492.179,54Zm0,0" transform="translate(-483.185 -53.032)"/><path class="a" d="M412.179,218.488a.179.179,0,1,0,.127.052A.18.18,0,0,0,412.179,218.488Zm0,0" transform="translate(-404.618 -214.573)"/><path class="a" d="M412.179,83.316A.179.179,0,0,0,412,83.5v1.661a.179.179,0,0,0,.358,0V83.5A.179.179,0,0,0,412.179,83.316Zm0,0" transform="translate(-404.618 -81.824)"/><path class="a" d="M246.179,257.642a.932.932,0,0,0,.931-.931.179.179,0,1,0-.358,0,.574.574,0,0,1-.573.573.179.179,0,0,0,0,.358Zm0,0" transform="translate(-241.592 -251.935)"/><path class="a" d="M288.148,222.358a.179.179,0,1,0-.127-.053A.18.18,0,0,0,288.148,222.358Zm0,0" transform="translate(-282.809 -218.022)"/></svg>