<svg xmlns="http://www.w3.org/2000/svg" width="9.576" height="9.135" viewBox="0 0 9.576 9.135"><defs><style>.a{fill:#fff;}</style></defs><g transform="translate(0 0)"><g transform="translate(0 0)"><path class="a" d="M9.562,15.263a.281.281,0,0,0-.226-.191L6.367,14.64,5.04,11.95a.281.281,0,0,0-.5,0L3.209,14.64.24,15.072a.281.281,0,0,0-.155.479l2.148,2.094L1.726,20.6a.281.281,0,0,0,.407.3l2.655-1.4,2.655,1.4a.281.281,0,0,0,.407-.3l-.507-2.957L9.491,15.55A.281.281,0,0,0,9.562,15.263ZM6.846,17.345a.28.28,0,0,0-.081.248L7.2,20.135l-2.282-1.2a.281.281,0,0,0-.261,0l-2.283,1.2.436-2.542a.281.281,0,0,0-.081-.248l-1.847-1.8,2.552-.371a.281.281,0,0,0,.211-.153l1.141-2.313,1.141,2.313a.281.281,0,0,0,.211.153l2.552.371Z" transform="translate(0 -11.794)"/></g></g></svg>